<?xml version="1.0" encoding="UTF-8"?>
<svg width="1000px" height="608px" viewBox="0 0 1000 608" version="1.1" xmlns="http://www.w3.org/2000/svg" xmlns:xlink="http://www.w3.org/1999/xlink">
    <!-- Generator: Sketch 54.1 (76490) - https://sketchapp.com -->
    <title>Adoption</title>
    <desc>Created with Sketch.</desc>
    <defs>
        <path d="M206.502787,15.3881667 L100.622365,118.018983 C76.1577465,120.820392 56.616938,126.128992 43.7526254,134.414683 L43.7526254,134.414683 C-65.1233352,204.53985 39.5480831,336.144658 267.710345,369.844108 L267.710345,369.844108 C495.871549,403.544617 760.954452,355.256042 750.0237,281.220333 L750.0237,281.220333 C747.865897,266.60475 723.26483,249.305233 684.350337,231.491367 L684.350337,231.491367 L678.818323,68.335525 L511.887946,0.277283333" id="path-1"></path>
        <path d="M206.502787,15.3881667 L100.622365,118.018983 C76.1577465,120.820392 56.616938,126.128992 43.7526254,134.414683 L43.7526254,134.414683 C-65.1233352,204.53985 39.5480831,336.144658 267.710345,369.844108 L267.710345,369.844108 C495.871549,403.544617 760.954452,355.256042 750.0237,281.220333 L750.0237,281.220333 C747.865897,266.60475 723.26483,249.305233 684.350337,231.491367 L684.350337,231.491367 L678.818323,68.335525 L511.887946,0.277283333 L206.502787,15.3881667 Z" id="path-3"></path>
        <path d="M206.502787,15.3881667 L100.622365,118.018983 C76.1577465,120.820392 56.616938,126.128992 43.7526254,134.414683 L43.7526254,134.414683 C-65.1233352,204.53985 39.5480831,336.144658 267.710345,369.844108 L267.710345,369.844108 C495.871549,403.544617 760.954452,355.256042 750.0237,281.220333 L750.0237,281.220333 C747.865897,266.60475 723.26483,249.305233 684.350337,231.491367 L684.350337,231.491367 L678.818323,68.335525 L511.887946,0.277283333" id="path-5"></path>
        <path d="M206.502787,15.3881667 L100.622365,118.018983 C76.1577465,120.820392 56.616938,126.128992 43.7526254,134.414683 L43.7526254,134.414683 C-65.1233352,204.53985 39.5480831,336.144658 267.710345,369.844108 L267.710345,369.844108 C495.871549,403.544617 760.954452,355.256042 750.0237,281.220333 L750.0237,281.220333 C747.865897,266.60475 723.26483,249.305233 684.350337,231.491367 L684.350337,231.491367 L678.818323,68.335525 L511.887946,0.277283333" id="path-7"></path>
        <path d="M206.502787,15.3881667 L100.622365,118.018983 C76.1577465,120.820392 56.616938,126.128992 43.7526254,134.414683 L43.7526254,134.414683 C-65.1233352,204.53985 39.5480831,336.144658 267.710345,369.844108 L267.710345,369.844108 C495.871549,403.544617 760.954452,355.256042 750.0237,281.220333 L750.0237,281.220333 C747.865897,266.60475 723.26483,249.305233 684.350337,231.491367 L684.350337,231.491367 L678.818323,68.335525 L511.887946,0.277283333" id="path-9"></path>
        <path d="M206.502787,15.3881667 L100.622365,118.018983 C76.1577465,120.820392 56.616938,126.128992 43.7526254,134.414683 L43.7526254,134.414683 C-65.1233352,204.53985 39.5480831,336.144658 267.710345,369.844108 L267.710345,369.844108 C495.871549,403.544617 760.954452,355.256042 750.0237,281.220333 L750.0237,281.220333 C747.865897,266.60475 723.26483,249.305233 684.350337,231.491367 L684.350337,231.491367 L678.818323,68.335525 L511.887946,0.277283333" id="path-11"></path>
        <path d="M206.502787,15.3881667 L100.622365,118.018983 C76.1577465,120.820392 56.616938,126.128992 43.7526254,134.414683 L43.7526254,134.414683 C-65.1233352,204.53985 39.5480831,336.144658 267.710345,369.844108 L267.710345,369.844108 C495.871549,403.544617 760.954452,355.256042 750.0237,281.220333 L750.0237,281.220333 C747.865897,266.60475 723.26483,249.305233 684.350337,231.491367 L684.350337,231.491367 L678.818323,68.335525 L511.887946,0.277283333" id="path-13"></path>
        <path d="M206.502787,15.3881667 L100.622365,118.018983 C76.1577465,120.820392 56.616938,126.128992 43.7526254,134.414683 L43.7526254,134.414683 C-65.1233352,204.53985 39.5480831,336.144658 267.710345,369.844108 L267.710345,369.844108 C495.871549,403.544617 760.954452,355.256042 750.0237,281.220333 L750.0237,281.220333 C747.865897,266.60475 723.26483,249.305233 684.350337,231.491367 L684.350337,231.491367 L678.818323,68.335525 L511.887946,0.277283333" id="path-15"></path>
        <path d="M206.502787,15.3881667 L100.622365,118.018983 C76.1577465,120.820392 56.616938,126.128992 43.7526254,134.414683 L43.7526254,134.414683 C-65.1233352,204.53985 39.5480831,336.144658 267.710345,369.844108 L267.710345,369.844108 C495.871549,403.544617 760.954452,355.256042 750.0237,281.220333 L750.0237,281.220333 C747.865897,266.60475 723.26483,249.305233 684.350337,231.491367 L684.350337,231.491367 L678.818323,68.335525 L511.887946,0.277283333 L206.502787,15.3881667 Z" id="path-17"></path>
        <path d="M206.502787,15.3881667 L100.622365,118.018983 C76.1577465,120.820392 56.616938,126.128992 43.7526254,134.414683 L43.7526254,134.414683 C-65.1233352,204.53985 39.5480831,336.144658 267.710345,369.844108 L267.710345,369.844108 C495.871549,403.544617 760.954452,355.256042 750.0237,281.220333 L750.0237,281.220333 C747.865897,266.60475 723.26483,249.305233 684.350337,231.491367 L684.350337,231.491367 L678.818323,68.335525 L511.887946,0.277283333 L206.502787,15.3881667 Z" id="path-19"></path>
        <path d="M206.502787,15.3881667 L100.622365,118.018983 C76.1577465,120.820392 56.616938,126.128992 43.7526254,134.414683 L43.7526254,134.414683 C-65.1233352,204.53985 39.5480831,336.144658 267.710345,369.844108 L267.710345,369.844108 C495.871549,403.544617 760.954452,355.256042 750.0237,281.220333 L750.0237,281.220333 C747.865897,266.60475 723.26483,249.305233 684.350337,231.491367 L684.350337,231.491367 L678.818323,68.335525 L511.887946,0.277283333" id="path-21"></path>
        <path d="M206.502787,15.3881667 L100.622365,118.018983 C76.1577465,120.820392 56.616938,126.128992 43.7526254,134.414683 L43.7526254,134.414683 C-65.1233352,204.53985 39.5480831,336.144658 267.710345,369.844108 L267.710345,369.844108 C495.871549,403.544617 760.954452,355.256042 750.0237,281.220333 L750.0237,281.220333 C747.865897,266.60475 723.26483,249.305233 684.350337,231.491367 L684.350337,231.491367 L678.818323,68.335525 L511.887946,0.277283333" id="path-23"></path>
        <path d="M206.502787,15.3881667 L100.622365,118.018983 C76.1577465,120.820392 56.616938,126.128992 43.7526254,134.414683 L43.7526254,134.414683 C-65.1233352,204.53985 39.5480831,336.144658 267.710345,369.844108 L267.710345,369.844108 C495.871549,403.544617 760.954452,355.256042 750.0237,281.220333 L750.0237,281.220333 C747.865897,266.60475 723.26483,249.305233 684.350337,231.491367 L684.350337,231.491367 L678.818323,68.335525 L511.887946,0.277283333 L206.502787,15.3881667 Z" id="path-25"></path>
        <path d="M206.502787,15.3881667 L100.622365,118.018983 C76.1577465,120.820392 56.616938,126.128992 43.7526254,134.414683 L43.7526254,134.414683 C-65.1233352,204.53985 39.5480831,336.144658 267.710345,369.844108 L267.710345,369.844108 C495.871549,403.544617 760.954452,355.256042 750.0237,281.220333 L750.0237,281.220333 C747.865897,266.60475 723.26483,249.305233 684.350337,231.491367 L684.350337,231.491367 L678.818323,68.335525 L511.887946,0.277283333" id="path-27"></path>
        <path d="M206.502787,15.3881667 L100.622365,118.018983 C76.1577465,120.820392 56.616938,126.128992 43.7526254,134.414683 L43.7526254,134.414683 C-65.1233352,204.53985 39.5480831,336.144658 267.710345,369.844108 L267.710345,369.844108 C495.871549,403.544617 760.954452,355.256042 750.0237,281.220333 L750.0237,281.220333 C747.865897,266.60475 723.26483,249.305233 684.350337,231.491367 L684.350337,231.491367 L678.818323,68.335525 L511.887946,0.277283333 L206.502787,15.3881667 Z" id="path-29"></path>
        <path d="M206.502787,15.3881667 L100.622365,118.018983 C76.1577465,120.820392 56.616938,126.128992 43.7526254,134.414683 L43.7526254,134.414683 C-65.1233352,204.53985 39.5480831,336.144658 267.710345,369.844108 L267.710345,369.844108 C495.871549,403.544617 760.954452,355.256042 750.0237,281.220333 L750.0237,281.220333 C747.865897,266.60475 723.26483,249.305233 684.350337,231.491367 L684.350337,231.491367 L678.818323,68.335525 L511.887946,0.277283333" id="path-31"></path>
        <path d="M206.502787,15.3881667 L100.622365,118.018983 C76.1577465,120.820392 56.616938,126.128992 43.7526254,134.414683 L43.7526254,134.414683 C-65.1233352,204.53985 39.5480831,336.144658 267.710345,369.844108 L267.710345,369.844108 C495.871549,403.544617 760.954452,355.256042 750.0237,281.220333 L750.0237,281.220333 C747.865897,266.60475 723.26483,249.305233 684.350337,231.491367 L684.350337,231.491367 L678.818323,68.335525 L511.887946,0.277283333" id="path-33"></path>
        <path d="M206.502787,15.3881667 L100.622365,118.018983 C76.1577465,120.820392 56.616938,126.128992 43.7526254,134.414683 L43.7526254,134.414683 C-65.1233352,204.53985 39.5480831,336.144658 267.710345,369.844108 L267.710345,369.844108 C495.871549,403.544617 760.954452,355.256042 750.0237,281.220333 L750.0237,281.220333 C747.865897,266.60475 723.26483,249.305233 684.350337,231.491367 L684.350337,231.491367 L678.818323,68.335525 L511.887946,0.277283333" id="path-35"></path>
        <path d="M206.502787,15.3881667 L100.622365,118.018983 C76.1577465,120.820392 56.616938,126.128992 43.7526254,134.414683 L43.7526254,134.414683 C-65.1233352,204.53985 39.5480831,336.144658 267.710345,369.844108 L267.710345,369.844108 C495.871549,403.544617 760.954452,355.256042 750.0237,281.220333 L750.0237,281.220333 C747.865897,266.60475 723.26483,249.305233 684.350337,231.491367 L684.350337,231.491367 L678.818323,68.335525 L511.887946,0.277283333" id="path-37"></path>
        <path d="M206.502787,15.3881667 L100.622365,118.018983 C76.1577465,120.820392 56.616938,126.128992 43.7526254,134.414683 L43.7526254,134.414683 C-65.1233352,204.53985 39.5480831,336.144658 267.710345,369.844108 L267.710345,369.844108 C495.871549,403.544617 760.954452,355.256042 750.0237,281.220333 L750.0237,281.220333 C747.865897,266.60475 723.26483,249.305233 684.350337,231.491367 L684.350337,231.491367 L678.818323,68.335525 L511.887946,0.277283333" id="path-39"></path>
        <path d="M206.502787,15.3881667 L100.622365,118.018983 C76.1577465,120.820392 56.616938,126.128992 43.7526254,134.414683 L43.7526254,134.414683 C-65.1233352,204.53985 39.5480831,336.144658 267.710345,369.844108 L267.710345,369.844108 C495.871549,403.544617 760.954452,355.256042 750.0237,281.220333 L750.0237,281.220333 C747.865897,266.60475 723.26483,249.305233 684.350337,231.491367 L684.350337,231.491367 L678.818323,68.335525 L511.887946,0.277283333" id="path-41"></path>
        <path d="M206.502787,15.3881667 L100.622365,118.018983 C76.1577465,120.820392 56.616938,126.128992 43.7526254,134.414683 L43.7526254,134.414683 C-65.1233352,204.53985 39.5480831,336.144658 267.710345,369.844108 L267.710345,369.844108 C495.871549,403.544617 760.954452,355.256042 750.0237,281.220333 L750.0237,281.220333 C747.865897,266.60475 723.26483,249.305233 684.350337,231.491367 L684.350337,231.491367 L678.818323,68.335525 L511.887946,0.277283333" id="path-43"></path>
        <path d="M206.502787,15.3881667 L100.622365,118.018983 C76.1577465,120.820392 56.616938,126.128992 43.7526254,134.414683 L43.7526254,134.414683 C-65.1233352,204.53985 39.5480831,336.144658 267.710345,369.844108 L267.710345,369.844108 C495.871549,403.544617 760.954452,355.256042 750.0237,281.220333 L750.0237,281.220333 C747.865897,266.60475 723.26483,249.305233 684.350337,231.491367 L684.350337,231.491367 L678.818323,68.335525 L511.887946,0.277283333" id="path-45"></path>
        <path d="M206.502787,15.3881667 L100.622365,118.018983 C76.1577465,120.820392 56.616938,126.128992 43.7526254,134.414683 L43.7526254,134.414683 C-65.1233352,204.53985 39.5480831,336.144658 267.710345,369.844108 L267.710345,369.844108 C495.871549,403.544617 760.954452,355.256042 750.0237,281.220333 L750.0237,281.220333 C747.865897,266.60475 723.26483,249.305233 684.350337,231.491367 L684.350337,231.491367 L678.818323,68.335525 L511.887946,0.277283333" id="path-47"></path>
        <path d="M206.502787,15.3881667 L100.622365,118.018983 C76.1577465,120.820392 56.616938,126.128992 43.7526254,134.414683 L43.7526254,134.414683 C-65.1233352,204.53985 39.5480831,336.144658 267.710345,369.844108 L267.710345,369.844108 C495.871549,403.544617 760.954452,355.256042 750.0237,281.220333 L750.0237,281.220333 C747.865897,266.60475 723.26483,249.305233 684.350337,231.491367 L684.350337,231.491367 L678.818323,68.335525 L511.887946,0.277283333 L206.502787,15.3881667 Z" id="path-49"></path>
        <path d="M206.502787,15.3881667 L100.622365,118.018983 C76.1577465,120.820392 56.616938,126.128992 43.7526254,134.414683 L43.7526254,134.414683 C-65.1233352,204.53985 39.5480831,336.144658 267.710345,369.844108 L267.710345,369.844108 C495.871549,403.544617 760.954452,355.256042 750.0237,281.220333 L750.0237,281.220333 C747.865897,266.60475 723.26483,249.305233 684.350337,231.491367 L684.350337,231.491367 L678.818323,68.335525 L511.887946,0.277283333" id="path-51"></path>
        <path d="M206.502787,15.3881667 L100.622365,118.018983 C76.1577465,120.820392 56.616938,126.128992 43.7526254,134.414683 L43.7526254,134.414683 C-65.1233352,204.53985 39.5480831,336.144658 267.710345,369.844108 L267.710345,369.844108 C495.871549,403.544617 760.954452,355.256042 750.0237,281.220333 L750.0237,281.220333 C747.865897,266.60475 723.26483,249.305233 684.350337,231.491367 L684.350337,231.491367 L678.818323,68.335525 L511.887946,0.277283333 L206.502787,15.3881667 Z" id="path-53"></path>
        <path d="M206.502787,15.3881667 L100.622365,118.018983 C76.1577465,120.820392 56.616938,126.128992 43.7526254,134.414683 L43.7526254,134.414683 C-65.1233352,204.53985 39.5480831,336.144658 267.710345,369.844108 L267.710345,369.844108 C495.871549,403.544617 760.954452,355.256042 750.0237,281.220333 L750.0237,281.220333 C747.865897,266.60475 723.26483,249.305233 684.350337,231.491367 L684.350337,231.491367 L678.818323,68.335525 L511.887946,0.277283333 L206.502787,15.3881667 Z" id="path-55"></path>
        <path d="M206.502787,15.3881667 L100.622365,118.018983 C76.1577465,120.820392 56.616938,126.128992 43.7526254,134.414683 L43.7526254,134.414683 C-65.1233352,204.53985 39.5480831,336.144658 267.710345,369.844108 L267.710345,369.844108 C495.871549,403.544617 760.954452,355.256042 750.0237,281.220333 L750.0237,281.220333 C747.865897,266.60475 723.26483,249.305233 684.350337,231.491367 L684.350337,231.491367 L678.818323,68.335525 L511.887946,0.277283333 L206.502787,15.3881667 Z" id="path-57"></path>
        <path d="M206.502787,15.3881667 L100.622365,118.018983 C76.1577465,120.820392 56.616938,126.128992 43.7526254,134.414683 L43.7526254,134.414683 C-65.1233352,204.53985 39.5480831,336.144658 267.710345,369.844108 L267.710345,369.844108 C495.871549,403.544617 760.954452,355.256042 750.0237,281.220333 L750.0237,281.220333 C747.865897,266.60475 723.26483,249.305233 684.350337,231.491367 L684.350337,231.491367 L678.818323,68.335525 L511.887946,0.277283333" id="path-59"></path>
        <path d="M206.048654,15.1305606 L100.14812,117.895022 C75.6788546,120.700078 56.1343345,126.015591 43.2675784,134.312072 L43.2675784,134.312072 C-65.6290625,204.528555 39.0622375,336.304738 267.267838,370.048071 L267.267838,370.048071 C495.47238,403.792464 760.605633,355.441008 749.672805,281.308891 L749.672805,281.308891 C747.514592,266.674275 722.908852,249.352232 683.986967,231.515168 L683.986967,231.515168 L678.453902,68.1468664 L511.491819,0 L206.048654,15.1305606 Z" id="path-61"></path>
    </defs>
    <g id="Adoption" stroke="none" stroke-width="1" fill="none" fill-rule="evenodd">
        <g id="Group-79" transform="translate(154.000000, 8.000000)">
            <path d="M175.511,130.478221 C175.505,130.494221 175.498,130.510221 175.489,130.529221 C175.498,130.513221 175.511,130.449221 175.511,130.478221" id="Fill-1" fill="#C5CFD6"></path>
            <path d="M175.496308,130.502392 C175.496308,130.505392 175.493308,130.512392 175.493308,130.518392 C175.493308,130.502392 175.521308,130.454392 175.496308,130.502392" id="Fill-3" fill="#C5CFD6"></path>
            <path d="M175.606765,130.232596 C175.585765,130.296596 175.555765,130.357596 175.530765,130.420596 C175.543765,130.388596 175.555765,130.363596 175.568765,130.331596 C175.237765,131.160596 175.447765,130.621596 175.606765,130.232596" id="Fill-5" fill="#C5CFD6"></path>
            <path d="M175.535463,130.424695 C175.522463,130.453695 175.510463,130.485695 175.497463,130.513695 C175.405463,130.692695 175.535463,130.424695 175.535463,130.424695" id="Fill-7" fill="#C5CFD6"></path>
            <polygon id="Fill-9" fill="#C5CFD6" points="175.5 130.5015 175.5 130.5015 175.5 130.4985"></polygon>
            <path d="M175.4985,130.503 C175.4985,130.5 175.4985,130.5 175.5015,130.497 C175.4985,130.5 175.4985,130.5 175.4985,130.503" id="Fill-11" fill="#C5CFD6"></path>
            <path d="M175.483518,130.526199 C175.463518,130.564199 175.572518,130.379199 175.483518,130.526199" id="Fill-13" fill="#C5CFD6"></path>
            <path d="M175.497,130.503 L175.503,130.497 C175.5,130.5 175.5,130.503 175.497,130.503" id="Fill-15" fill="#C5CFD6"></path>
            <path d="M101.778869,43 L249.221131,43 C252.965193,43 256,46.0129472 256,49.7300414 L256,142.269959 C256,145.987053 252.965193,149 249.221131,149 L101.778869,149 C98.0348066,149 95,145.987053 95,142.269959 L95,49.7300414 C95,46.0129472 98.0348066,43 101.778869,43" id="Fill-17" fill="#DDE3E9"></path>
            <polygon id="Fill-19" fill="#4766FA" points="155.500532 72 108 148 203 148"></polygon>
            <polygon id="Fill-21" fill="#7189FB" points="201.999475 94 161 149 243 149"></polygon>
            <path d="M218.50054,62 C227.060685,62 234,68.9395566 234,77.5 C234,86.0604434 227.060685,93 218.50054,93 C209.939315,93 203,86.0604434 203,77.5 C203,68.9395566 209.939315,62 218.50054,62" id="Fill-23" fill="#FFFFFF"></path>
            <path d="M228.000288,100 L546.998654,100 C551.417497,100 555,103.567298 555,107.968688 L555,288.031312 C555,292.432702 551.417497,296 546.998654,296 L228.000288,296 C223.581444,296 220,292.432702 220,288.031312 L220,107.968688 C220,103.567298 223.581444,100 228.000288,100" id="Fill-25" fill="#F2F2F2"></path>
            <path d="M228.000288,100 L546.998654,100 C551.417497,100 555,103.581438 555,108.000274 L555,127 L220,127 L220,108.000274 C220,103.581438 223.581444,100 228.000288,100" id="Fill-27" fill="#7189FB"></path>
            <path d="M233,109 C235.209635,109 237,110.791187 237,113.000529 C237,115.208813 235.209635,117 233,117 C230.790365,117 229,115.208813 229,113.000529 C229,110.791187 230.790365,109 233,109" id="Fill-29" fill="#F2F2F2"></path>
            <path d="M245,109 C247.209635,109 249,110.791187 249,113.000529 C249,115.208813 247.209635,117 245,117 C242.790365,117 241,115.208813 241,113.000529 C241,110.791187 242.790365,109 245,109" id="Fill-31" fill="#F2F2F2"></path>
            <path d="M257,109 C259.209635,109 261,110.791187 261,113.000529 C261,115.208813 259.209635,117 257,117 C254.791424,117 253,115.208813 253,113.000529 C253,110.791187 254.791424,109 257,109" id="Fill-33" fill="#F2F2F2"></path>
            <path d="M244.006628,147 L443.993372,147 C446.205607,147 448,148.789635 448,150.996004 L448,269.003996 C448,271.211423 446.205607,273 443.993372,273 L244.006628,273 C241.793332,273 240,271.211423 240,269.003996 L240,150.996004 C240,148.789635 241.793332,147 244.006628,147" id="Fill-35" fill="#FFFFFF"></path>
            <path d="M474.000333,144 L528.000726,144 C532.419594,144 536,147.580952 536,151.999188 L536,265.000812 C536,269.41799 532.419594,273 528.000726,273 L474.000333,273 C469.581464,273 466,269.41799 466,265.000812 L466,151.999188 C466,147.580952 469.581464,144 474.000333,144" id="Fill-37" fill="#FFFFFF"></path>
            <path d="M486.470651,154 L515.529349,154 C517.998438,154 520,156.066399 520,158.615469 L520,179.384531 C520,181.933601 517.998438,184 515.529349,184 L486.470651,184 C484.001562,184 482,181.933601 482,179.384531 L482,158.615469 C482,156.066399 484.001562,154 486.470651,154" id="Fill-39" fill="#DDE3E9"></path>
            <path d="M486.470651,193 L515.529349,193 C517.998438,193 520,195.005767 520,197.480042 L520,216.519958 C520,218.994233 517.998438,221 515.529349,221 L486.470651,221 C484.001562,221 482,218.994233 482,216.519958 L482,197.480042 C482,195.005767 484.001562,193 486.470651,193" id="Fill-41" fill="#7189FB"></path>
            <path d="M486.470651,229 L515.529349,229 C517.998438,229 520,231.005767 520,233.480042 L520,252.519958 C520,254.994233 517.998438,257 515.529349,257 L486.470651,257 C484.001562,257 482,254.994233 482,252.519958 L482,233.480042 C482,231.005767 484.001562,229 486.470651,229" id="Fill-43" fill="#DDE3E9"></path>
            <path d="M256,169.5 L432,169.5" id="Stroke-45" stroke="#DDE3E9"></path>
            <path d="M256,190.5 L432,190.5" id="Stroke-47" stroke="#DDE3E9"></path>
            <path d="M256,211.5 L432,211.5" id="Stroke-49" stroke="#DDE3E9"></path>
            <path d="M256,233.5 L432,233.5" id="Stroke-51" stroke="#DDE3E9"></path>
            <polyline id="Stroke-53" stroke="#DDE3E9" points="256.311061 164 256 255 432 255"></polyline>
            <polyline id="Stroke-55" stroke="#DDE3E9" points="257 254 320.753343 190.979039 338.098594 208.125318 344.330586 201.965863 375.07812 232.360683 424 184"></polyline>
            <path d="M324,191 C324,192.657194 322.656367,194 321.000533,194 C319.342568,194 318,192.657194 318,191 C318,189.342806 319.342568,188 321.000533,188 C322.656367,188 324,189.342806 324,191" id="Fill-57" fill="#4766FA"></path>
            <path d="M347,202 C347,203.657194 345.657432,205 344.000533,205 C342.343633,205 341,203.657194 341,202 C341,200.342806 342.343633,199 344.000533,199 C345.657432,199 347,200.342806 347,202" id="Fill-59" fill="#4766FA"></path>
            <path d="M377,232 C377,233.657194 375.656367,235 374.000533,235 C372.343633,235 371,233.657194 371,232 C371,230.342806 372.343633,229 374.000533,229 C375.656367,229 377,230.342806 377,232" id="Fill-61" fill="#4766FA"></path>
            <path d="M426,184 C426,185.657194 424.656367,187 423.000533,187 C421.343633,187 420,185.657194 420,184 C420,182.342806 421.343633,181 423.000533,181 C424.656367,181 426,182.342806 426,184" id="Fill-63" fill="#4766FA"></path>
            <path d="M341,208 C341,209.657194 339.657432,211 338.000533,211 C336.343633,211 335,209.657194 335,208 C335,206.342806 336.343633,205 338.000533,205 C339.657432,205 341,206.342806 341,208" id="Fill-65" fill="#4766FA"></path>
            <path d="M749.672804,467.139356 C760.605632,541.396572 495.473437,589.831375 267.267837,556.029555 C39.0622374,522.227735 -65.6290624,390.228353 43.2675783,319.892373 C152.163161,249.558516 738.741033,392.88214 749.672804,467.139356" id="Fill-67" fill="#DDE3E9"></path>
            <path d="M324,48 L324,48 C326.209286,48 328,49.9875592 328,52.439701 L328,80.560299 C328,83.0124408 326.209286,85 324,85 C321.790714,85 320,83.0124408 320,80.560299 L320,52.439701 C320,49.9875592 321.790714,48 324,48" id="Fill-69" fill="#CFD1DB"></path>
            <path d="M343.999519,24 L343.999519,24 C346.209501,24 348,25.9652915 348,28.3910166 L348,79.6100394 C348,82.0347085 346.209501,84 343.999519,84 C341.790499,84 340,82.0347085 340,79.6100394 L340,28.3910166 C340,25.9652915 341.790499,24 343.999519,24" id="Fill-71" fill="#DDE3E9"></path>
            <path d="M364,12 L364,12 C366.209286,12 368,13.9733145 368,16.4078819 L368,79.5921181 C368,82.0266855 366.209286,84 364,84 C361.790714,84 360,82.0266855 360,79.5921181 L360,16.4078819 C360,13.9733145 361.790714,12 364,12" id="Fill-73" fill="#7189FB"></path>
            <path d="M386,24 L386,24 C388.209286,24 390,25.9652915 390,28.3910166 L390,79.6100394 C390,82.0347085 388.209286,84 386,84 C383.790714,84 382,82.0347085 382,79.6100394 L382,28.3910166 C382,25.9652915 383.790714,24 386,24" id="Fill-75" fill="#DDE3E9"></path>
            <path d="M405,1 L405,1 C407.210248,1 409,2.95552489 409,5.36814453 L409,79.6318555 C409,82.0444751 407.210248,84 405,84 C402.790714,84 401,82.0444751 401,79.6318555 L401,5.36814453 C401,2.95552489 402.790714,1 405,1" id="Fill-77" fill="#4766FA"></path>
        </g>
        <g id="Group-193" transform="translate(154.000000, 194.000000)">
            <g id="Group-82">
                <mask id="mask-2" fill="white">
                    <use xlink:href="#path-1"></use>
                </mask>
                <g id="Clip-81"></g>
                <path d="M498.292731,55.0281475 C505.39021,67.0963225 518.168845,95.7041308 514.604239,101.660431 L484.322015,109.778906 C484.304034,109.724931 484.28711,109.672014 484.270186,109.620156 C472.713248,111.385456 461.434497,104.204664 458.338473,92.6434308 L452.620296,71.2957892 C449.298972,58.8900058 456.657714,46.1381475 469.055561,42.8139225 L471.14461,42.2540642 C482.264699,39.2727392 493.662975,44.8871975 498.292731,55.0281475" id="Fill-80" fill="#191847" mask="url(#mask-2)"></path>
            </g>
            <g id="Group-85">
                <mask id="mask-4" fill="white">
                    <use xlink:href="#path-3"></use>
                </mask>
                <g id="Clip-84"></g>
                <path d="M469.039377,85.5373575 C462.727804,81.2267658 457.633697,75.2365992 456.117946,67.3985825 C451.750511,44.8169242 484.163036,41.3529992 493.209942,50.9160992 C502.25579,60.4781408 509.134315,89.0425575 501.849615,93.1383075 C498.943985,94.7723742 491.777753,94.5998658 483.933505,92.3710158 L496.152593,121.010574 L471.091405,127.728874 L469.039377,85.5373575 Z" id="Fill-83" fill="#B28B67" mask="url(#mask-4)"></path>
            </g>
            <g id="Group-88">
                <mask id="mask-6" fill="white">
                    <use xlink:href="#path-5"></use>
                </mask>
                <g id="Clip-87"></g>
                <path d="M474.811605,79.9780383 C479.259429,91.9678967 482.558541,106.13898 480.010429,110.395597 L449.729263,118.514072 C440.257143,89.89568 459.577941,96.7811967 452.247757,69.41058 C453.000873,68.1522217 453.700043,66.9203217 454.425657,65.8238883 L454.176029,65.02908 C456.568652,52.97678 461.794977,45.8700717 469.856063,43.708955 C481.948221,40.46728 487.260224,45.0244633 491.777859,48.8894967 C491.562079,57.8101883 482.46017,61.565155 475.461062,68.9650217 C474.260519,68.4347967 472.872756,68.2950967 471.500859,68.6633967 C468.329735,69.5132383 466.441657,72.7527967 467.283624,75.8981633 C468.126648,79.04353 471.380276,80.90408 474.552457,80.05318 C474.639193,80.0298967 474.725928,80.0044967 474.811605,79.9780383" id="Fill-86" fill="#191847" mask="url(#mask-6)"></path>
            </g>
            <g id="Group-91">
                <mask id="mask-8" fill="white">
                    <use xlink:href="#path-7"></use>
                </mask>
                <g id="Clip-90"></g>
                <path d="M443.722744,320.7385 C469.656572,327.967975 492.030026,331.582183 510.84522,331.582183 C529.661472,331.582183 547.138617,326.01535 563.275597,314.882742 C537.898144,307.461708 516.998131,303.751192 500.576617,303.751192 C484.155103,303.751192 465.203459,309.414333 443.722744,320.7385" id="Fill-89" fill="#1F28CF" mask="url(#mask-8)"></path>
            </g>
            <g id="Group-94">
                <mask id="mask-10" fill="white">
                    <use xlink:href="#path-9"></use>
                </mask>
                <g id="Clip-93"></g>
                <path d="M533.295466,342.00338 C533.045838,341.62873 532.834288,341.221272 532.667165,340.779947 C529.200929,331.642297 473.676643,233.073363 468.144629,215.053122 L530.657446,215.053122 C534.861988,228.754305 553.792477,314.738597 556.455883,331.893122 C564.861794,358.954705 582.167584,446.592113 584.376159,452.66483 C586.700028,459.050813 573.624166,465.704555 570.138891,457.85278 C564.595242,445.358097 551.383988,410.788697 545.500803,389.680238 C539.985712,369.891522 535.495579,352.088238 533.295466,342.00338" id="Fill-92" fill="#997659" mask="url(#mask-10)"></path>
            </g>
            <g id="Group-97">
                <mask id="mask-12" fill="white">
                    <use xlink:href="#path-11"></use>
                </mask>
                <g id="Clip-96"></g>
                <path d="M482.152789,354.037794 C456.767931,360.432244 363.91683,371.992419 357.544965,373.805344 C350.99011,375.670127 345.242316,362.204952 353.345712,359.288186 C366.236468,354.646336 401.75771,343.922244 423.294486,339.547094 C440.618258,336.026019 456.426279,333.154761 467.03865,331.472011 C466.139565,301.759302 462.03022,230.454094 464.723243,215.053227 L520.033864,215.053227 C517.451905,229.821211 495.614728,337.578594 491.556155,348.365127 C490.26782,352.215344 486.423969,353.917144 482.152789,354.037794" id="Fill-95" fill="#B28B67" mask="url(#mask-12)"></path>
            </g>
            <g id="Group-100">
                <mask id="mask-14" fill="white">
                    <use xlink:href="#path-13"></use>
                </mask>
                <g id="Clip-99"></g>
                <path d="M353.85142,355.606667 C350.461343,354.975901 347.977754,354.799159 346.399596,355.078559 C344.479786,355.416167 341.733876,356.231084 338.163982,357.521192 C338.556406,359.748984 342.086106,379.775826 348.752024,417.599601 C354.18461,418.250476 356.812053,416.858768 356.63012,413.422359 C356.448188,409.985951 356.327605,407.126334 356.266255,404.842451 L363.787891,374.723342 C363.931744,374.144434 363.579515,373.557059 363.000927,373.412067 C362.991407,373.408892 362.98083,373.406776 362.97131,373.404659 L358.303475,372.378076 C356.302219,369.519517 355.130236,367.118159 354.787526,365.170826 C354.508281,363.588617 354.761082,361.292034 355.548045,358.278959 C355.849503,357.124317 355.156679,355.941101 354.00162,355.639476 C353.951906,355.627834 353.902192,355.616192 353.85142,355.606667" id="Fill-98" fill="#E4E4E4" mask="url(#mask-14)"></path>
            </g>
            <g id="Group-103">
                <mask id="mask-16" fill="white">
                    <use xlink:href="#path-15"></use>
                </mask>
                <g id="Clip-102"></g>
                <path d="M464.902425,215.05291 C489.276077,208.102835 512.338123,208.102835 534.087506,215.05291 C541.655683,249.464618 560.04249,263.121352 563.276021,315.880327 C526.521446,334.082602 481.117678,302.897752 443.282087,320.648118 C432.471918,295.819618 447.605097,236.024843 464.902425,215.05291" id="Fill-101" fill="#FB708B" mask="url(#mask-16)"></path>
            </g>
            <g id="Group-106">
                <mask id="mask-18" fill="white">
                    <use xlink:href="#path-17"></use>
                </mask>
                <g id="Clip-105"></g>
                <path d="M515.919124,138.644207 L518.376269,101.822673 C513.513809,87.4251067 505.284541,85.4841233 507.688799,83.5410233 C510.561638,81.21904 513.857576,86.3265567 516.106345,86.5075317 C518.355114,86.6885067 521.271321,76.4131483 523.567689,70.712965 C525.865114,65.01384 529.813682,70.922515 531.035379,72.8359817 C538.154013,83.2690317 530.644013,88.6749983 528.761224,98.15449 L536.126313,140.270865 L515.919124,138.644207 Z" id="Fill-104" fill="#997659" mask="url(#mask-18)"></path>
            </g>
            <g id="Group-109">
                <mask id="mask-20" fill="white">
                    <use xlink:href="#path-19"></use>
                </mask>
                <g id="Clip-108"></g>
                <path d="M583.438255,150.580407 L598.106025,138.838199 C598.862314,129.808499 600.820203,124.986732 603.978634,124.373957 C606.212595,122.818207 603.897187,134.467282 608.342896,132.708332 C612.788604,130.949382 622.578048,120.626399 624.81624,121.977891 C628.126986,123.974966 626.923271,132.115666 624.58142,136.472824 C620.207638,144.615641 615.972421,147.883774 605.004648,153.119349 C599.269547,155.856199 593.341935,160.361524 587.220756,166.635324 L583.438255,150.580407 Z" id="Fill-107" fill="#997659" mask="url(#mask-20)"></path>
            </g>
            <g id="Group-112">
                <mask id="mask-22" fill="white">
                    <use xlink:href="#path-21"></use>
                </mask>
                <g id="Clip-111"></g>
                <path d="M511.888475,158.250255 C516.179753,145.82013 519.472518,128.375622 514.639674,106.78033 L532.456356,105.346288 C540.11444,121.786438 543.86944,142.398538 538.118473,157.19298 C533.586029,168.85158 517.271347,169.807255 511.888475,158.250255" id="Fill-110" fill="#26336D" mask="url(#mask-22)"></path>
            </g>
            <g id="Group-115">
                <mask id="mask-24" fill="white">
                    <use xlink:href="#path-23"></use>
                </mask>
                <g id="Clip-114"></g>
                <path d="M525.747599,165.153128 C540.089583,166.141612 562.422842,158.05277 592.747376,140.886603 C603.682359,155.997487 609.466117,167.122687 610.100765,174.266437 C584.897839,193.592662 562.251487,204.221503 542.733949,208.102412 C545.395239,219.567337 545.921997,230.831178 542.942325,241.732012 C536.815858,264.144337 466.934779,241.638878 448.360751,248.803795 C429.446128,211.971678 459.233327,205.471395 454.858487,180.540237 C450.069011,153.238412 464.679663,107.33532 467.918483,106.76382 L497.458169,101.551528 C502.762768,122.112828 515.015703,143.642503 525.747599,165.153128" id="Fill-113" fill="#2944C8" mask="url(#mask-24)"></path>
            </g>
            <g id="Group-118">
                <mask id="mask-26" fill="white">
                    <use xlink:href="#path-25"></use>
                </mask>
                <g id="Clip-117"></g>
                <path d="M433.760888,304.913136 L472.299881,301.019527 C486.842837,306.694311 494.174078,308.377061 494.292545,306.068836 C494.470247,302.603852 489.791834,302.138186 489.533744,299.780219 C489.274596,297.424369 495.369331,294.403886 501.276845,291.786627 C507.183302,289.169369 504.171897,287.533186 502.134678,287.024127 C494.478709,286.673819 485.70999,287.657011 475.828523,289.973702 L431.438076,283.729536 L433.760888,304.913136 Z" id="Fill-116" fill="#B28B67" mask="url(#mask-26)"></path>
            </g>
            <g id="Group-121">
                <mask id="mask-28" fill="white">
                    <use xlink:href="#path-27"></use>
                </mask>
                <g id="Clip-120"></g>
                <path d="M347.863412,213.764177 L356.84791,206.808811 C356.84791,206.808811 388.187881,279.762903 472.561144,286.519303 L468.67181,307.379053 L393.326413,306.266744 C393.326413,306.266744 342.9121,272.771553 347.863412,213.764177" id="Fill-119" fill="#0F1D5E" mask="url(#mask-28)"></path>
            </g>
            <g id="Group-124">
                <mask id="mask-30" fill="white">
                    <use xlink:href="#path-29"></use>
                </mask>
                <g id="Clip-123"></g>
                <path d="M337.207462,175.617611 C331.987483,169.486686 328.455668,161.974636 329.044832,153.556653 C330.746746,129.302828 364.489917,134.637886 371.054292,146.880686 C377.617608,159.121369 376.838049,190.172869 368.353865,192.360444 C364.971192,193.233569 357.764765,191.095736 350.429293,186.671902 L355.033663,219.262219 L327.848521,219.262219 L337.207462,175.617611 Z" id="Fill-122" fill="#B28B67" mask="url(#mask-30)"></path>
            </g>
            <g id="Group-127">
                <mask id="mask-32" fill="white">
                    <use xlink:href="#path-31"></use>
                </mask>
                <g id="Clip-126"></g>
                <path d="M359.064735,148.654982 C355.375315,150.71979 352.749989,154.589057 349.589442,159.663765 C348.819403,159.361082 347.98061,159.194923 347.103738,159.194923 C343.351911,159.194923 340.308775,162.239748 340.308775,165.995773 C340.308775,167.901832 341.092565,169.624798 342.355514,170.858815 C340.783703,173.080257 339.020439,175.400123 337.001201,177.794073 C329.464758,173.270757 323.859759,160.084982 331.055608,147.355348 C337.246599,121.860098 372.327818,137.685357 379.077299,133.38429 C380.552855,142.637298 375.794054,150.09749 359.064735,148.654982" id="Fill-125" fill="#191847" mask="url(#mask-32)"></path>
            </g>
            <g id="Group-130">
                <mask id="mask-34" fill="white">
                    <use xlink:href="#path-33"></use>
                </mask>
                <g id="Clip-129"></g>
                <path d="M338.801274,197.04685 C347.19555,198.275575 353.069217,198.013108 356.426504,196.258392 C356.426504,228.537558 368.461543,262.557683 386.757384,309.032275 C387.932541,312.015717 388.043604,322.943008 385.510301,323.427725 C365.061946,327.341442 337.032722,327.341442 301.421572,323.427725 C305.875742,268.479058 316.244831,230.312383 338.801274,197.04685" id="Fill-128" fill="#DDE3E9" mask="url(#mask-34)"></path>
            </g>
            <g id="Group-133">
                <mask id="mask-36" fill="white">
                    <use xlink:href="#path-35"></use>
                </mask>
                <g id="Clip-132"></g>
                <path d="M342.594247,194.328627 L335.829959,194.328627 L329.711953,194.328627 L297.823012,270.038618 C297.640022,283.675243 301.54628,297.561635 299.259432,311.724252 C298.988649,313.400652 298.661805,315.089752 298.281016,316.790493 C296.107347,317.048727 294.265811,318.701843 293.864925,320.969852 L293.274702,324.318418 C292.964783,326.07631 293.596257,327.78446 294.804204,328.922168 C294.300716,330.392193 293.758093,331.871743 293.197487,333.354468 L369.218784,333.354468 C358.441405,276.440477 340.3074,224.589552 342.594247,194.328627" id="Fill-131" fill="#2F3676" mask="url(#mask-36)"></path>
            </g>
            <g id="Group-136">
                <mask id="mask-38" fill="white">
                    <use xlink:href="#path-37"></use>
                </mask>
                <g id="Clip-135"></g>
                <path d="M342.594247,194.328627 L335.829959,194.328627 L329.711953,194.328627 L297.823012,270.038618 C297.640022,283.675243 301.54628,297.561635 299.259432,311.724252 C298.988649,313.400652 298.661805,315.089752 298.281016,316.790493 C296.107347,317.048727 294.265811,318.701843 293.864925,320.969852 L293.274702,324.318418 C292.964783,326.07631 293.596257,327.78446 294.804204,328.922168 C294.300716,330.392193 293.758093,331.871743 293.197487,333.354468 L369.218784,333.354468 C358.441405,276.440477 340.3074,224.589552 342.594247,194.328627" id="Fill-134" fill="#26336D" mask="url(#mask-38)"></path>
            </g>
            <g id="Group-139">
                <mask id="mask-40" fill="white">
                    <use xlink:href="#path-39"></use>
                </mask>
                <g id="Clip-138"></g>
                <path d="M360.560495,293.419213 L298.585013,283.375629 C299.523234,292.704838 300.80628,302.151521 299.259855,311.724146 C298.989072,313.400546 298.661171,315.090704 298.28144,316.790388 C296.106713,317.048621 294.265176,318.701738 293.86429,320.969746 L293.275125,324.318313 C292.970495,326.048688 293.578699,327.726146 294.750682,328.863854 L368.350797,328.863854 C365.965579,316.742763 363.279961,304.874613 360.560495,293.419213" id="Fill-137" fill="#000000" mask="url(#mask-40)"></path>
            </g>
            <g id="Group-142">
                <mask id="mask-42" fill="white">
                    <use xlink:href="#path-41"></use>
                </mask>
                <g id="Clip-141"></g>
                <path d="M431.61747,303.33696 C431.625932,303.331668 431.635452,303.326377 431.642856,303.321085 C431.877676,303.17186 432.126246,303.020518 432.390683,302.872352 C433.36381,302.305085 434.323186,301.846827 435.261407,301.479585 C437.284876,300.613868 439.634131,299.777785 441.952711,298.995677 C448.074948,296.931927 445.226436,295.026927 443.243162,294.330543 C435.652773,293.27856 426.832225,293.451068 416.778345,294.849127 L373.149476,284.549427 L373.516514,305.856852 L412.249074,305.524535 C412.345329,305.57216 412.433122,305.615552 412.529377,305.663177 C414.028204,306.375435 421.862932,309.550435 431.61747,303.33696" id="Fill-140" fill="#B28B67" mask="url(#mask-42)"></path>
            </g>
            <g id="Group-145">
                <mask id="mask-44" fill="white">
                    <use xlink:href="#path-43"></use>
                </mask>
                <g id="Clip-144"></g>
                <path d="M404.223529,284.15361 C401.969471,284.174777 400.018986,284.130327 400.007351,284.131385 C363.433651,284.549427 309.790039,272.538402 322.346547,236.562477 C334.366778,202.119018 334.428127,194.328627 334.428127,194.328627 L329.469412,194.328627 C322.76753,198.627577 324.72965,196.66966 318.626453,201.915818 C304.53727,214.026327 290.694541,235.579285 282.972992,254.201718 C282.966646,254.217593 283.088286,254.329777 283.08194,254.348827 C272.799586,286.525335 308.461509,305.377427 331.630388,311.025752 C354.800325,316.675135 366.112923,314.128785 387.273141,315.150077 C391.599325,315.358568 395.801751,314.533068 400.269672,314.724627 C403.205977,305.048285 404.095541,294.659685 404.223529,284.15361" id="Fill-143" fill="#3F4A7E" mask="url(#mask-44)"></path>
            </g>
            <g id="Group-148">
                <mask id="mask-46" fill="white">
                    <use xlink:href="#path-45"></use>
                </mask>
                <g id="Clip-147"></g>
                <path d="M358.057655,320.129747 C358.057655,317.626788 356.028897,315.596905 353.527327,315.596905 C351.024698,315.596905 348.995941,317.626788 348.995941,320.129747 C348.995941,322.633763 351.024698,324.662588 353.527327,324.662588 C356.028897,324.662588 358.057655,322.633763 358.057655,320.129747" id="Fill-146" fill="#000000" mask="url(#mask-46)"></path>
            </g>
            <g id="Group-151">
                <mask id="mask-48" fill="white">
                    <use xlink:href="#path-47"></use>
                </mask>
                <g id="Clip-150"></g>
                <path d="M456.103666,354.846996 C464.900944,349.561679 479.660738,356.351946 479.651219,363.910562 C479.620544,386.529262 458.991314,493.126713 457.914528,499.865121 C456.836685,506.604588 445.298786,508.383646 444.626059,499.887346 C443.557735,486.367138 441.571288,439.567637 443.558793,417.904612 C444.378547,408.963812 445.262823,400.447404 446.13229,392.849629 C435.307313,412.410804 418.565302,440.415363 395.907314,476.864363 L383.606781,471.241438 C393.266121,439.400421 401.186527,416.919304 407.367997,403.803379 C417.952866,381.342371 427.876644,362.108221 432.054743,355.333829 C438.624406,344.677471 450.060761,348.395396 456.103666,354.846996" id="Fill-149" fill="#B28B67" mask="url(#mask-48)"></path>
            </g>
            <g id="Group-154">
                <mask id="mask-50" fill="white">
                    <use xlink:href="#path-49"></use>
                </mask>
                <g id="Clip-153"></g>
                <path d="M384.485768,453.558275 L426.704661,353.490742 C436.818833,337.212517 465.1749,356.803325 461.725589,366.244717 C453.895092,387.679142 414.071995,457.073 411.738606,463.458983 L384.485768,453.558275 Z" id="Fill-152" fill="#1F28CF" mask="url(#mask-50)"></path>
            </g>
            <g id="Group-157">
                <mask id="mask-52" fill="white">
                    <use xlink:href="#path-51"></use>
                </mask>
                <g id="Clip-156"></g>
                <path d="M482.61037,371.600518 C482.61037,399.991368 469.13468,466.216577 469.126218,472.46921 L440.133387,472.490377 C444.377066,413.398335 445.881181,383.533227 444.646791,382.897168 C442.795735,381.941493 368.759828,390.292802 346.554556,390.292802 C314.53657,390.292802 301.290411,370.090277 300.215741,332.665493 L363.643508,332.665493 C376.558593,334.048735 443.923293,347.643027 468.941112,352.316627 C479.650795,354.316877 482.61037,363.778377 482.61037,371.600518" id="Fill-155" fill="#3456FA" mask="url(#mask-52)"></path>
            </g>
            <g id="Group-160">
                <mask id="mask-54" fill="white">
                    <use xlink:href="#path-53"></use>
                </mask>
                <g id="Clip-159"></g>
                <path d="M255.657641,456.313646 L255.657641,380.876704 C255.657641,368.245496 260.572989,356.370996 269.500369,347.440779 C278.425634,338.509504 290.29355,333.591429 302.917754,333.591429 L620.366512,333.591429 C632.9886,333.591429 644.857574,338.509504 653.784954,347.440779 C662.710219,356.370996 667.626624,368.245496 667.626624,380.876704 L667.626624,456.253321 L667.301896,510.063221 L694.487038,510.063221 L694.810709,456.313646 L694.810709,380.876704 C694.810709,360.980038 687.066947,342.275054 673.005265,328.206629 C658.945699,314.138204 640.25003,306.391204 620.366512,306.391204 L302.917754,306.391204 C283.03212,306.391204 264.337509,314.138204 250.276885,328.206629 C236.216261,342.275054 228.473557,360.981096 228.473557,380.876704 L228.473557,456.253321 L228.148829,510.063221 L255.333971,510.063221 L255.657641,456.313646 Z" id="Fill-158" fill="#9D9FB5" mask="url(#mask-54)"></path>
            </g>
            <g id="Group-163">
                <mask id="mask-56" fill="white">
                    <use xlink:href="#path-55"></use>
                </mask>
                <g id="Clip-162"></g>
                <path d="M649.357333,174.047679 C649.357333,169.388896 645.583294,165.611704 640.926036,165.611704 L508.915044,165.611704 C504.257786,165.611704 500.483747,169.388896 500.483747,174.047679 L500.483747,267.074121 L649.357333,267.074121 L649.357333,174.047679 Z" id="Fill-161" fill="#3F4A7E" mask="url(#mask-56)"></path>
            </g>
            <g id="Group-166">
                <mask id="mask-58" fill="white">
                    <use xlink:href="#path-57"></use>
                </mask>
                <g id="Clip-165"></g>
                <path d="M500.483641,267.074544 L500.483641,274.678669 C500.483641,278.564869 503.63361,281.716586 507.516598,281.716586 L642.324271,281.716586 C646.208316,281.716586 649.357227,278.564869 649.357227,274.678669 L649.357227,267.074544 L500.483641,267.074544 Z" id="Fill-164" fill="#9EA3B7" mask="url(#mask-58)"></path>
            </g>
            <g id="Group-169">
                <mask id="mask-60" fill="white">
                    <use xlink:href="#path-59"></use>
                </mask>
                <g id="Clip-168"></g>
                <path d="M650.867478,281.716586 L512.970127,281.716586 C509.939683,281.716586 507.48148,279.258078 507.48148,276.225953 L507.48148,171.102761 C507.48148,168.070636 509.939683,165.612127 512.970127,165.612127 L650.867478,165.612127 C653.898979,165.612127 656.355066,168.070636 656.355066,171.102761 L656.355066,276.225953 C656.355066,279.258078 653.898979,281.716586 650.867478,281.716586" id="Fill-167" fill="#0F1D5E" mask="url(#mask-60)"></path>
            </g>
            <mask id="mask-62" fill="white">
                <use xlink:href="#path-61"></use>
            </mask>
            <g id="Clip-171"></g>
            <polygon id="Fill-170" fill="#3F4A7E" mask="url(#mask-62)" points="561 282 593 282 593 226 561 226"></polygon>
            <polygon id="Fill-172" fill="#9EA3B7" mask="url(#mask-62)" points="561 302 593 302 593 282 561 282"></polygon>
            <polygon id="Fill-173" fill="#9EA3B7" mask="url(#mask-62)" points="540 307 596 307 596 299 540 299"></polygon>
            <polygon id="Fill-174" fill="#0F1D5E" mask="url(#mask-62)" points="569 303 601 303 601 226 569 226"></polygon>
            <polygon id="Fill-175" fill="#0F1D5E" mask="url(#mask-62)" points="550 307 614 307 614 299 550 299"></polygon>
            <path d="M590,241.500494 C590,246.194207 586.193218,250 581.499506,250 C576.804804,250 573,246.194207 573,241.500494 C573,236.805793 576.804804,233 581.499506,233 C586.193218,233 590,236.805793 590,241.500494" id="Fill-176" fill="#3F4A7E" mask="url(#mask-62)"></path>
            <path d="M587,241.500494 C587,246.194207 583.193986,250 578.5,250 C573.805026,250 570,246.194207 570,241.500494 C570,236.805793 573.805026,233 578.5,233 C583.193986,233 587,236.805793 587,241.500494" id="Fill-177" fill="#0F1D5E" mask="url(#mask-62)"></path>
            <polygon id="Fill-178" fill="#FFFFFF" mask="url(#mask-62)" points="325 239 343 230 343 239"></polygon>
            <path d="M256,212.727756 L299.241342,206.156449 C307.819657,201.2075 315.734585,197.823815 322.987189,196.007549 C325.035821,195.915982 328.311294,196.609739 323.530444,200.727041 C318.751719,204.845419 313.910271,209.393625 314.817112,211.538457 C315.725017,213.682211 320.22733,212.809628 321.040617,216.116827 C321.581745,218.320908 314.257911,218.794904 299.064864,217.534506 L264.156256,232 L256,212.727756 Z" id="Fill-179" fill="#57331F" mask="url(#mask-62)"></path>
            <path d="M87.5009836,220.319004 L109.677481,213 C110.851525,260.362717 109.393126,257.789868 109.212172,260.772775 C108.80395,267.483001 117.106268,274.721046 121,278.800594 C114.858352,284.351094 111.600112,272.483603 103.908511,279.643841 C96.8890234,286.178479 92.9177404,295.094606 81.3065576,292.557505 C79.8793946,292.24523 77.6594829,290.016199 80.0678878,286.889246 C86.067358,279.100252 94.1574873,266.273857 94.64003,262.779955 C95.2970635,258.016977 94.2188822,262.359383 87.5009836,220.319004" id="Fill-180" fill="#57331F" mask="url(#mask-62)"></path>
            <path d="M200.319232,116 L209.969502,116.90132 C224.890312,141.531045 220.647549,190.000254 232.396904,199.703194 C243.50496,208.876132 262.966886,208.064732 286.343495,206.195446 L289,222.366307 C264.036071,237.914072 218.015464,244.39363 203.95892,229.927025 C181.484802,206.7995 190.654098,148.069845 200.319232,116" id="Fill-181" fill="#E12E52" mask="url(#mask-62)"></path>
            <polygon id="Fill-182" fill="#191847" mask="url(#mask-62)" points="151 241 189.907782 376.86125 218.295118 477 239 477 208.834799 241"></polygon>
            <path d="M141.817937,214 C140.918317,284.122455 137.757433,349.040452 136.813203,355.411464 C135.868974,361.782476 121.59826,402.310929 94,477 L115.424127,477 C150.559227,405.349688 170.172431,364.820176 174.264799,355.411464 C178.355043,346.002752 190.982649,307.755488 210,240.671792 L141.817937,214 Z" id="Fill-183" fill="#2F3676" mask="url(#mask-62)"></path>
            <path d="M201.855691,87.7513283 C198.850971,79.7161062 198.016151,70.900082 201.603451,62.6600593 C211.935802,38.9181272 243.577706,56.4349755 245.741273,71.0920825 C247.903784,85.7491895 236.064323,116.647408 226.85175,115.787672 C223.177907,115.445271 216.77586,110.701792 211.059821,103.616972 L204.024535,138 L177,128.204773 L201.855691,87.7513283 Z" id="Fill-184" fill="#57331F" mask="url(#mask-62)"></path>
            <path d="M223.397635,72.9333646 C219.293761,87.5159599 219.445679,95.5934515 223.851293,97.1637566 C230.460238,99.5202557 237.572083,97.349111 240.473187,98.3831382 C242.586415,99.1370513 241.165723,101.597682 239.060876,103.047194 C237.324823,104.243667 231.13601,103.786529 230.234981,106.280482 C229.336047,108.773394 234.480295,108.429759 233.945964,109.90947 C233.063793,112.355522 232.185814,117.233048 227.914306,115.711685 C223.591461,114.169495 211.761786,108.18505 211.937801,101.050991 C212.052001,96.4473309 214.243807,87.6023892 218.511123,74.5182482 C218.260721,74.3943315 217.999841,74.2829107 217.728485,74.1871096 C214.024836,72.8667203 209.945059,74.7796186 208.616565,78.4617135 C207.941841,80.3308765 208.106331,82.2958406 208.916209,83.9504924 C206.578772,85.5739047 204.01922,87.2285566 201.178883,88.8644647 C195.303334,81.7314471 194.464119,66.682342 206.313702,56.7367288 C210.555873,51.3073049 216.321413,49.6547357 222.281826,50.0577252 C227.321303,49.7984374 231.943793,51.2146278 235.389706,53.6752585 C242.6849,57.0001819 248.583498,61.6767339 250,63.7114663 C247.443591,70.7934593 245.304171,72.4022932 233.57717,68.0131444 C230.13021,68.5015218 226.956701,70.3269496 223.397635,72.9333646" id="Fill-185" fill="#191847" mask="url(#mask-62)"></path>
            <path d="M131,220.094951 C167.789635,229.967865 194.849343,237.229569 212.183347,241.881119 C215.892499,242.876973 216.616596,237.370173 216.798148,234.542242 C218.896553,201.903162 203.671509,162.026694 215.468174,117.930002 L193.027489,108 C165.383014,133.735757 148.495501,170.024188 131,220.094951" id="Fill-186" fill="#DDE3E9" mask="url(#mask-62)"></path>
            <path d="M130.064252,187.458557 C107.655602,216.265582 112.028074,239.936677 112.028074,258.533349 C105.79842,259.348862 91.5500844,259.225846 85.3225607,260 C77.0834445,173.237448 106.752569,132.759781 190.847568,108.00487 C191.7112,108.240298 189.945599,107.758838 191.496091,108.180911 C193.045517,108.604045 197.923815,109.909502 200.164361,110.474741 C200.812884,152.146515 206.083064,223.296601 179.049562,257.964929 C155.923171,251.525661 135.751873,243.54869 112.028074,239.15616 C118.013866,221.69951 122.745208,204.398751 130.064252,187.458557" id="Fill-187" fill="#FA345B" mask="url(#mask-62)"></path>
            <path d="M535.144616,90.5402816 L524.554435,97.6860133 C523.685077,98.2723578 522.524177,98.0137087 521.961094,97.1084365 L508.301845,75.1616149 C507.738762,74.2563427 507.986097,73.0474866 508.855456,72.4600461 L519.444584,65.3143144 C520.313943,64.7279698 521.475895,64.9855231 522.038978,65.8907952 L535.697174,87.8387128 C536.262363,88.7439849 536.012922,89.9539371 535.144616,90.5402816" id="Fill-188" fill="#3F4A7E" mask="url(#mask-62)"></path>
            <path d="M534.206696,91.4374865 L523.436099,98.7081104 C522.630664,99.2521781 521.554654,99.0140119 521.032379,98.1738752 L507.279157,76.067027 C506.757931,75.2279828 506.987606,74.1070722 507.793041,73.5630045 L518.563637,66.2912881 C519.370121,65.7472203 520.446132,65.9875715 520.967357,66.8266157 L534.72058,88.933464 C535.241805,89.7725082 535.013179,90.8934188 534.206696,91.4374865" id="Fill-189" fill="#9EA3B7" mask="url(#mask-62)"></path>
            <path d="M517.254779,70.1799301 L517.254779,70.1799301 C517.423703,70.4552234 517.349668,70.8219141 517.090027,71.0003042 L512.657351,74.0340366 C512.397709,74.2113255 512.049435,74.1331422 511.881555,73.8578488 C511.712631,73.5836567 511.3654,73.5054734 511.104715,73.6838635 L509.255942,74.9480104 C508.995258,75.1264005 508.922267,75.4930912 509.090147,75.7683845 L521.953353,96.729218 C522.122276,97.0034101 522.469508,97.0826946 522.730192,96.9054057 L532.743597,90.0517032 C533.004281,89.8733131 533.078315,89.5066224 532.909392,89.2313291 L520.046186,68.2704956 C519.877263,67.9963035 519.530032,67.917019 519.269347,68.095409 L517.420574,69.3606572 C517.160933,69.5379461 517.086898,69.9046368 517.254779,70.1799301" id="Fill-190" fill="#0C174B" mask="url(#mask-62)"></path>
            <path d="M524.275359,77.0529061 C525.627422,79.1382294 525.032676,81.9243829 522.947531,83.2755512 C520.861376,84.6277294 518.075461,84.0319227 516.723398,81.9476093 C515.373355,79.8612761 515.967091,77.0751226 518.053246,75.7239543 C520.138391,74.372786 522.924306,74.9675828 524.275359,77.0529061" id="Fill-191" fill="#9EA3B7" mask="url(#mask-62)"></path>
            <path d="M526.758434,87.6841998 C527.209521,88.3786299 527.010228,89.3088233 526.31592,89.7589168 C525.62054,90.2090104 524.69158,90.0107549 524.241566,89.3152532 C523.790479,88.6208231 523.989772,87.6917014 524.68408,87.2416078 C525.37946,86.7904426 526.30842,86.9897698 526.758434,87.6841998" id="Fill-192" fill="#9EA3B7" mask="url(#mask-62)"></path>
        </g>
        <g id="Group-238" transform="translate(95.000000, 100.000000)">
            <path d="M372.976608,377.070657 C372.976608,377.070657 359.983448,368.879489 366.270702,361.041343 C372.557957,353.203198 380.102235,347.427334 372.976608,341.652524 C365.852052,335.87666 350.953014,332.164131 364.479392,321.438581 C378.00684,310.711976 395.19186,312.363277 393.934838,321.438581 C392.676744,330.513885 374.373895,327.203907 384.848727,338.202391 C395.613723,349.50753 371.719585,351.96604 374.234701,360.628255 C376.748747,369.291524 391.152042,364.690644 387.647583,374.829229 C384.143124,384.967815 372.976608,377.070657 372.976608,377.070657" id="Fill-194" fill="#FFFFFF"></path>
            <polygon id="Fill-196" fill="#4766FA" points="387.712068 399 368.360268 399 364 373 391 373"></polygon>
            <path d="M136,118.410268 C136,100.587525 150.853649,86 169,86 L169,118.410268 L146.447767,142 C140.03228,136.233011 136,127.772648 136,118.410268" id="Fill-198" fill="#CFD1DB"></path>
            <path d="M166.922297,118 L199,118 C199,126.6149 195.617661,134.686262 190.270503,140.552977 C184.38863,146.967586 176.013514,151 166.922297,151 C158.548229,151 150.882922,147.520927 145,142.019111 L166.922297,118 Z" id="Fill-200" fill="#FB708B"></path>
            <path d="M152,86 L164.799578,115.700654 L136,102.5 C138.847637,94.8011619 145.2432,88.9366253 152,86 L152,86 Z M200,119 C200,100.85305 185.598099,86 168,86 L168,119 L200,119 Z" id="Fill-202" fill="#E12E52"></path>
            <path d="M683.207401,47.4739616 C680.806451,50.0239108 677.403697,51.6248943 673.619454,51.6248943 C666.34686,51.6248943 660.452275,45.7493378 660.452275,38.5 C660.452275,31.251719 666.34686,25.3751057 673.619454,25.3751057 L673.619454,1 C652.9324,1 636,17.879544 636,38.5 C636,59.1215127 652.9324,76 673.619454,76 C684.485018,76 694.305451,71.4179113 701,64.1273601 L683.207401,47.4739616 Z" id="Fill-204" fill="#E7E8ED"></path>
            <path d="M673,1 L673,25.7001071 C680.344925,25.7001071 686.299893,31.6540044 686.299893,39 L711,39 C711,18.1035338 693.896466,1 673,1" id="Fill-206" fill="#4766FA"></path>
            <path d="M685.291697,39 C685.291697,43.2586917 683.220226,47.0439607 680,49.4882173 L695.837965,69 C705.057487,62.0138434 711,51.1864102 711,39 L685.291697,39 Z" id="Fill-208" fill="#9EA3B7"></path>
            <path d="M668.4955,177.49106 C668.4975,177.49706 668.5005,177.50406 668.5045,177.51206 C668.5005,177.50506 668.4955,177.47906 668.4955,177.49106" id="Fill-210" fill="#C5CFD6"></path>
            <path d="M668.501821,177.500825 C668.501821,177.501825 668.502821,177.504825 668.502821,177.507825 C668.502821,177.500825 668.490821,177.480825 668.501821,177.500825" id="Fill-212" fill="#C5CFD6"></path>
            <path d="M668.456268,177.390823 C668.466268,177.416823 668.477268,177.441823 668.487268,177.467823 C668.482268,177.453823 668.477268,177.444823 668.472268,177.430823 C668.607268,177.769823 668.521268,177.549823 668.456268,177.390823" id="Fill-214" fill="#C5CFD6"></path>
            <path d="M668.485226,177.469203 C668.491226,177.481203 668.496226,177.494203 668.501226,177.506203 C668.539226,177.578203 668.485226,177.469203 668.485226,177.469203" id="Fill-216" fill="#C5CFD6"></path>
            <polygon id="Fill-218" fill="#C5CFD6" points="668.5 177.501 668.5 177.501 668.5 177.499"></polygon>
            <path d="M668.5005,177.501 C668.5005,177.5 668.5005,177.5 668.4995,177.499 C668.5005,177.5 668.5005,177.5 668.5005,177.501" id="Fill-220" fill="#C5CFD6"></path>
            <path d="M668.506685,177.510823 C668.514685,177.526823 668.470685,177.449823 668.506685,177.510823" id="Fill-222" fill="#C5CFD6"></path>
            <path d="M668.5015,177.501 L668.4985,177.499 C668.4995,177.5 668.4995,177.501 668.5015,177.501" id="Fill-224" fill="#C5CFD6"></path>
            <path d="M714.240197,124 L621.76192,124 C620.236459,124 619,125.218759 619,126.722627 L619,185.275285 C619,186.780196 620.236459,188 621.76192,188 L714.240197,188 C715.764599,188 717,186.780196 717,185.275285 L717,126.722627 C717,125.218759 715.764599,124 714.240197,124" id="Fill-226" fill="#CFD1DB"></path>
            <polygon id="Fill-228" fill="#4766FA" points="681.000523 142 709 188 653 188"></polygon>
            <polygon id="Fill-230" fill="#7189FB" points="651 154 676 189 626 189"></polygon>
            <path d="M641,136 C636.03011,136 632,140.029088 632,145 C632,149.970912 636.03011,154 641,154 C645.96989,154 650,149.970912 650,145 C650,140.029088 645.96989,136 641,136" id="Fill-232" fill="#FFFFFF"></path>
            <path d="M11.2529474,224.51982 C32.3905547,260.027206 57.0080954,294.409071 71.792789,333.23055 C71.1964103,328.655407 70.5651371,324.083441 69.8577304,319.518886 C66.1071004,295.320711 61.4449838,271.300417 56.5449502,247.308711 C54.0505222,235.093154 51.4122865,222.922067 48.7053193,210.753097 C47.2503244,204.215969 45.8122481,197.675664 44.3265883,191.144889 C43.9670693,189.561959 43.6583058,186.800568 43.2078495,184 C57.5748666,231.210476 71.4300977,278.455894 81.5643063,326.801421 C82.8945269,333.145845 84.0259546,339.47968 84.9533023,345.801869 C85.2715825,344.359762 85.5835182,342.916596 85.9240039,341.478724 C90.0256937,324.23591 96.1766422,307.129683 103.500257,291.008154 C107.002396,283.297858 111.023723,275.756972 115.758801,268.729612 C118.711087,264.348233 125.675183,259.142036 128.369461,254.655833 C113.636581,281.711752 108.317813,315.56315 99.8120146,344.97811 C97.7352632,352.155822 95.6468803,359.321887 93.5997363,366.501717 C106.427166,340.742847 126.329719,319.577121 154,310.405659 C120.50551,332.566672 100.414738,371.375446 86.8777869,411.067272 C86.8323183,411.537386 86.7794478,412.008559 86.7339792,412.480791 C90.7172392,404.909199 95.7357027,398.060779 102.536958,393.265402 C117.093251,382.998066 133.240945,385.989221 147.361586,394.795391 C136.278881,387.741561 116.250496,394.165396 106.926263,401.334637 C100.250839,406.467776 94.5461175,413.352196 89.5921559,420.069323 C88.4046856,421.679782 86.7857923,423.558121 85.073847,425.563518 C82.6756432,441.15458 78.7674593,456.63976 73.2319228,472 C74.1465816,467.591091 73.4857009,460.539378 73.7384217,457.253873 C73.7659143,456.897052 73.7891773,456.54129 73.8156126,456.186587 C72.9749724,459.550444 72.1628822,462.875126 71.3793421,466.146867 C72.9347908,459.904089 73.7807181,453.386019 74.4405413,446.802303 C74.6107842,443.973147 74.77574,441.142933 74.9512699,438.313777 C74.8962846,432.943464 74.6752862,427.551974 74.3009633,422.152014 C72.9770872,416.903464 71.4935423,411.9535 70.27012,407.836825 C65.8564945,392.98164 59.3862084,378.751156 51.4207458,365.475724 C44.1542307,353.360755 35.457041,342.38613 25.4158845,332.46185 C20.00195,327.113771 14.3374096,322.01875 8.7521749,316.853847 C6.73252357,314.986096 3.12252899,310.395071 0,308.003206 C22.7385247,320.555467 46.1421597,334.134778 62.7307933,354.360277 C60.7851606,346.881861 58.6735146,339.510386 56.4381519,332.286086 C45.103784,295.63412 30.7906948,257.646988 11.2529474,224.51982" id="Fill-234" fill="#7189FB"></path>
            <path d="M34,425 C34,465.868718 37.2248642,499 80.4994705,499 C123.775136,499 127,465.868718 127,425" id="Fill-236" fill="#C5CFD6"></path>
        </g>
    </g>
</svg>