<?xml version="1.0" encoding="UTF-8"?>
<svg width="1000px" height="608px" viewBox="0 0 1000 608" version="1.1" xmlns="http://www.w3.org/2000/svg" xmlns:xlink="http://www.w3.org/1999/xlink">
    <!-- Generator: Sketch 54.1 (76490) - https://sketchapp.com -->
    <title>Mobile</title>
    <desc>Created with Sketch.</desc>
    <defs>
        <polygon id="path-1" points="0 666 943 666 943 0 0 0"></polygon>
        <path d="M0.486231884,112.037766 L21.2427536,152.886287 C15.3497826,163.713443 12.0003623,176.12306 12.0003623,189.314749 L12.0003623,189.314749 C12.0003623,231.484509 46.2151449,265.669491 88.4216667,265.669491 L88.4216667,265.669491 C130.627391,265.669491 164.842174,231.484509 164.842174,189.314749 L164.842174,189.314749 C164.842174,169.83224 157.535145,152.058024 145.514058,138.567683 L145.514058,138.567683 L156.814565,112.960802 L152.782826,39.3560539 L93.665,14.0088024 L42.326087,0.132203593 L0.486231884,112.037766 Z" id="path-3"></path>
        <path d="M0.486231884,112.037766 L21.2427536,152.886287 C15.3497826,163.713443 12.0003623,176.12306 12.0003623,189.314749 L12.0003623,189.314749 C12.0003623,231.484509 46.2151449,265.669491 88.4216667,265.669491 L88.4216667,265.669491 C130.627391,265.669491 164.842174,231.484509 164.842174,189.314749 L164.842174,189.314749 C164.842174,169.83224 157.535145,152.058024 145.514058,138.567683 L145.514058,138.567683 L156.814565,112.960802 L152.782826,39.3560539 L93.665,14.0088024 L42.326087,0.132203593" id="path-5"></path>
        <path d="M0.486231884,112.037766 L21.2427536,152.886287 C15.3497826,163.713443 12.0003623,176.12306 12.0003623,189.314749 L12.0003623,189.314749 C12.0003623,231.484509 46.2151449,265.669491 88.4216667,265.669491 L88.4216667,265.669491 C130.627391,265.669491 164.842174,231.484509 164.842174,189.314749 L164.842174,189.314749 C164.842174,169.83224 157.535145,152.058024 145.514058,138.567683 L145.514058,138.567683 L156.814565,112.960802 L152.782826,39.3560539 L93.665,14.0088024 L42.326087,0.132203593 L0.486231884,112.037766 Z" id="path-7"></path>
        <path d="M0.486231884,112.037766 L21.2427536,152.886287 C15.3497826,163.713443 12.0003623,176.12306 12.0003623,189.314749 L12.0003623,189.314749 C12.0003623,231.484509 46.2151449,265.669491 88.4216667,265.669491 L88.4216667,265.669491 C130.627391,265.669491 164.842174,231.484509 164.842174,189.314749 L164.842174,189.314749 C164.842174,169.83224 157.535145,152.058024 145.514058,138.567683 L145.514058,138.567683 L156.814565,112.960802 L152.782826,39.3560539 L93.665,14.0088024 L42.326087,0.132203593" id="path-9"></path>
        <path d="M0.486231884,112.037766 L21.2427536,152.886287 C15.3497826,163.713443 12.0003623,176.12306 12.0003623,189.314749 L12.0003623,189.314749 C12.0003623,231.484509 46.2151449,265.669491 88.4216667,265.669491 L88.4216667,265.669491 C130.627391,265.669491 164.842174,231.484509 164.842174,189.314749 L164.842174,189.314749 C164.842174,169.83224 157.535145,152.058024 145.514058,138.567683 L145.514058,138.567683 L156.814565,112.960802 L152.782826,39.3560539 L93.665,14.0088024 L42.326087,0.132203593" id="path-11"></path>
        <path d="M0.486231884,112.037766 L21.2427536,152.886287 C15.3497826,163.713443 12.0003623,176.12306 12.0003623,189.314749 L12.0003623,189.314749 C12.0003623,231.484509 46.2151449,265.669491 88.4216667,265.669491 L88.4216667,265.669491 C130.627391,265.669491 164.842174,231.484509 164.842174,189.314749 L164.842174,189.314749 C164.842174,169.83224 157.535145,152.058024 145.514058,138.567683 L145.514058,138.567683 L156.814565,112.960802 L152.782826,39.3560539 L93.665,14.0088024 L42.326087,0.132203593" id="path-13"></path>
        <path d="M0.486231884,112.037766 L21.2427536,152.886287 C15.3497826,163.713443 12.0003623,176.12306 12.0003623,189.314749 L12.0003623,189.314749 C12.0003623,231.484509 46.2151449,265.669491 88.4216667,265.669491 L88.4216667,265.669491 C130.627391,265.669491 164.842174,231.484509 164.842174,189.314749 L164.842174,189.314749 C164.842174,169.83224 157.535145,152.058024 145.514058,138.567683 L145.514058,138.567683 L156.814565,112.960802 L152.782826,39.3560539 L93.665,14.0088024 L42.326087,0.132203593" id="path-15"></path>
    </defs>
    <g id="Mobile" stroke="none" stroke-width="1" fill="none" fill-rule="evenodd">
        <g id="Group-80" transform="translate(29.000000, -29.000000)">
            <path d="M807.819554,248.48721 C809.676037,245.806651 813.121771,238.99983 815.735152,238.041862 C817.41872,237.42523 816.928269,243.805581 816.948704,245.022932 C817.02966,249.730022 816.576936,254.406877 816.018104,259.075776 C815.010479,267.493797 811.717225,274.991246 807.200202,282.155316 C804.876061,285.842377 802.149499,289.573995 798.372868,291.873436 C796.635853,292.933247 794.543576,293.110678 792.827784,294.023293 C790.828252,295.085492 791.917619,294.226981 791.016101,296.33626 C789.764822,299.263472 789.364758,303.040442 788.785492,306.164976 C786.127309,320.506642 779.693282,396.319753 780.808587,410.908072 C780.907621,412.20101 779.126591,412.509724 779.037776,410.931146 C778.564616,402.56166 782.654067,344.601437 784.717263,325.647364 C786.780458,306.692494 788.868805,289.946361 790.961869,283.389375 C793.501368,275.433629 798.087557,265.865888 801.906631,258.447209 C803.679015,255.000435 805.612524,251.672214 807.819554,248.48721" id="Fill-1" fill="#4766FA"></path>
            <path d="M849.132171,269.74721 C849.291356,269.516166 850.332861,267.913252 849.808909,268.015583 C850.876011,267.806924 848.341044,269.783985 851,268.570407 C849.737716,269.763199 850.465649,271.31095 850.482447,272.914664 C850.510445,275.519299 850.074485,278.10155 849.58333,280.650223 C848.808201,284.677895 847.652307,288.594441 845.97646,292.341503 C842.320795,300.506372 836.115763,308.365847 828.748438,313.470389 C825.111171,315.991081 821.546697,316.8489 817.398277,318.008914 C814.777717,318.742018 814.569736,320.0963 813.179464,322.637779 C810.283729,327.930193 807.439989,333.203421 804.886623,338.674914 C801.837302,345.208088 798.877573,351.747658 796.085029,358.396753 C786.67869,380.789583 779.023391,403.989866 775.00216,428 C774.903769,413.851185 778.179469,399.278658 782.31029,385.792594 C785.319615,375.966451 789.236856,366.495267 793.415673,357.119219 C794.427581,354.847158 795.96184,351.925937 796.392201,349.418036 C796.692973,347.660826 795.773058,345.971571 795.352296,344.120025 C793.708447,336.912908 793.826036,328.836779 795.269104,321.591287 C796.859358,313.600701 801.460537,309.892013 809.243024,308.75998 C812.089163,308.345861 815.706432,308.497758 818.316593,307.28418 C821.159533,305.964274 822.333025,301.622416 823.949677,298.836303 C828.29248,291.349375 833.452007,284.170239 839.377864,277.862512 C841.017714,276.116495 842.782353,274.504787 844.653381,273.011398 C845.834073,272.068837 848.327445,270.908023 849.132171,269.74721" id="Fill-3" fill="#7189FB"></path>
            <path d="M820.334514,449.34617 C841.899609,316.041439 333.066528,10.9274877 207.526815,112.244876 C81.9863046,213.562264 118.802561,468.362079 305.752655,575.740654 C492.703546,683.119229 798.76942,582.6509 820.334514,449.34617" id="Fill-5" fill="#E7E8ED"></path>
            <mask id="mask-2" fill="white">
                <use xlink:href="#path-1"></use>
            </mask>
            <g id="Clip-8"></g>
            <polygon id="Fill-7" fill="#FFFFFF" mask="url(#mask-2)" points="246 357 270 357 270 260 246 260"></polygon>
            <polygon id="Fill-9" fill="#FFFFFF" mask="url(#mask-2)" points="264 368 329 368 329 291 264 291"></polygon>
            <polygon id="Fill-10" fill="#FFFFFF" mask="url(#mask-2)" points="205 392 270 392 270 315 205 315"></polygon>
            <polygon id="Fill-11" fill="#FFFFFF" mask="url(#mask-2)" points="292 343 344 343 344 271 292 271"></polygon>
            <polygon id="Fill-12" fill="#FFFFFF" mask="url(#mask-2)" points="356 365 314 365 314 212.368813 356 196"></polygon>
            <polygon id="Fill-13" fill="#F1F2F7" mask="url(#mask-2)" points="324 304 346 304 346 227 324 227"></polygon>
            <polygon id="Stroke-14" stroke="#FFFFFF" mask="url(#mask-2)" points="324 304 346 304 346 227 324 227"></polygon>
            <path d="M335.5,227 L335.5,304" id="Stroke-15" stroke="#FFFFFF" mask="url(#mask-2)"></path>
            <path d="M324,236.5 L346,236.5" id="Stroke-16" stroke="#FFFFFF" mask="url(#mask-2)"></path>
            <path d="M324,248.5 L346,248.5" id="Stroke-17" stroke="#FFFFFF" mask="url(#mask-2)"></path>
            <path d="M324,259.5 L346,259.5" id="Stroke-18" stroke="#FFFFFF" mask="url(#mask-2)"></path>
            <path d="M324,269.5 L346,269.5" id="Stroke-19" stroke="#FFFFFF" mask="url(#mask-2)"></path>
            <path d="M324,281.5 L346,281.5" id="Stroke-20" stroke="#FFFFFF" mask="url(#mask-2)"></path>
            <path d="M324,291.5 L346,291.5" id="Stroke-21" stroke="#FFFFFF" mask="url(#mask-2)"></path>
            <polygon id="Fill-22" fill="#FFFFFF" mask="url(#mask-2)" points="380 343 422 343 422 191 380 191"></polygon>
            <polygon id="Fill-23" fill="#FFFFFF" mask="url(#mask-2)" points="580 406 622 406 622 254 580 254"></polygon>
            <polygon id="Fill-24" fill="#F1F2F7" mask="url(#mask-2)" points="592 303 613 303 613 263 592 263"></polygon>
            <polygon id="Stroke-25" stroke="#FFFFFF" mask="url(#mask-2)" points="592 303 613 303 613 263 592 263"></polygon>
            <path d="M590,270.5 L615,270.5" id="Stroke-26" stroke="#FFFFFF" mask="url(#mask-2)"></path>
            <path d="M590,280.5 L615,280.5" id="Stroke-27" stroke="#FFFFFF" mask="url(#mask-2)"></path>
            <path d="M590,287.5 L615,287.5" id="Stroke-28" stroke="#FFFFFF" mask="url(#mask-2)"></path>
            <path d="M590,295.5 L615,295.5" id="Stroke-29" stroke="#FFFFFF" mask="url(#mask-2)"></path>
            <polygon id="Fill-30" fill="#FFFFFF" mask="url(#mask-2)" points="609 412 667 412 667 309 609 309"></polygon>
            <polygon id="Fill-31" fill="#CFD3E8" mask="url(#mask-2)" points="277 420 335 420 335 317 277 317"></polygon>
            <polygon id="Fill-32" fill="#CFD3E8" mask="url(#mask-2)" points="314 391 393 391 393 288 314 288"></polygon>
            <polygon id="Fill-33" fill="#CFD3E8" mask="url(#mask-2)" points="200 438 244 438 244 335 200 335"></polygon>
            <polygon id="Fill-34" fill="#CFD3E8" mask="url(#mask-2)" points="247 429 291 429 291 326 247 326"></polygon>
            <polygon id="Fill-35" fill="#FFFFFF" mask="url(#mask-2)" points="646 407 670 407 670 289 646 289"></polygon>
            <polygon id="Fill-36" fill="#FFFFFF" mask="url(#mask-2)" points="646 428 706 428 706 341 646 341"></polygon>
            <polygon id="Fill-37" fill="#F1F2F7" mask="url(#mask-2)" points="618 326 663 326 663 320 618 320"></polygon>
            <polygon id="Stroke-38" stroke="#FFFFFF" mask="url(#mask-2)" points="618 326 663 326 663 320 618 320"></polygon>
            <polygon id="Fill-39" fill="#F1F2F7" mask="url(#mask-2)" points="618 335 663 335 663 329 618 329"></polygon>
            <polygon id="Stroke-40" stroke="#FFFFFF" mask="url(#mask-2)" points="618 335 663 335 663 329 618 329"></polygon>
            <polygon id="Fill-41" fill="#F1F2F7" mask="url(#mask-2)" points="618 346 663 346 663 340 618 340"></polygon>
            <polygon id="Stroke-42" stroke="#FFFFFF" mask="url(#mask-2)" points="618 346 663 346 663 340 618 340"></polygon>
            <polygon id="Fill-43" fill="#FFFFFF" mask="url(#mask-2)" points="627 327 631 327 631 319 627 319"></polygon>
            <polygon id="Fill-44" fill="#FFFFFF" mask="url(#mask-2)" points="655 327 659 327 659 319 655 319"></polygon>
            <polygon id="Fill-45" fill="#FFFFFF" mask="url(#mask-2)" points="642 336 646 336 646 328 642 328"></polygon>
            <polygon id="Fill-46" fill="#FFFFFF" mask="url(#mask-2)" points="635 347 639 347 639 339 635 339"></polygon>
            <polygon id="Fill-47" fill="#FFFFFF" mask="url(#mask-2)" points="644 347 648 347 648 339 644 339"></polygon>
            <polygon id="Fill-48" fill="#CFD3E8" mask="url(#mask-2)" points="587 443 631 443 631 340 587 340"></polygon>
            <polygon id="Fill-49" fill="#CFD3E8" mask="url(#mask-2)" points="637 467 681 467 681 364 637 364"></polygon>
            <polygon id="Fill-50" fill="#CFD3E8" mask="url(#mask-2)" points="655 438 690 438 690 335 655 335"></polygon>
            <polygon id="Fill-51" fill="#CFD3E8" mask="url(#mask-2)" points="699 460 734 460 734 357 699 357"></polygon>
            <path d="M417.931381,370.227781 C279.440242,307.650238 188.329097,360.80613 152,388.875998 C177.059907,462.842832 228.689449,532.871187 306.025812,577.524887 C492.876874,685.414941 798.781416,584.468797 820.335087,450.530084 C824.442028,425.005918 809.295344,393.211844 781.219962,359.171093 C689.444377,369.251556 567.80006,437.944697 417.931381,370.227781" id="Fill-52" fill="#B2B7CF" mask="url(#mask-2)"></path>
            <path d="M305.756013,577.497994 C488.47646,682.865464 784.825773,589.166112 819,460 L185,460 C213.529341,506.25727 253.863295,547.57369 305.756013,577.497994" id="Fill-53" fill="#EFF0F5" mask="url(#mask-2)"></path>
            <path d="M344.094241,524 L313,579.611218 C347.98132,598.326174 386.819444,610.095773 427,616 C355.300564,583.084293 344.094241,524 344.094241,524" id="Fill-54" fill="#2944C8" mask="url(#mask-2)"></path>
            <path d="M130.532959,213.025685 C138.469803,212.606722 148.285332,217.327838 149.131877,226.118884 C149.747403,232.507075 149.556323,238.876912 150.508588,245.254729 C151.269773,250.351715 152.879852,255.245206 155.075699,259.889712 C157.18697,264.353865 161.566134,268.154859 162.705562,272.925453 C163.431507,275.964333 163.025072,280.24095 162.023471,283.213593 C160.805732,286.827849 161.453365,286.542156 163.879447,289.57545 C168.632939,295.519141 172.914214,301.615255 175.940943,308.713689 C180.301312,318.939584 183.160455,330.890808 181.541762,342.083909 C181.335804,343.505192 181.092256,348.606169 179.171281,348.962886 C177.026337,349.361101 178.02872,346.444319 178.143838,345.501851 C178.873699,339.489529 179.522116,334.233736 178.641897,328.126449 C175.244756,304.565554 158.658438,289.042369 147.858536,269.045455 C147.264154,268.014406 146.011174,265.558883 145.13957,263.938892 C143.763642,261.382019 142.380665,256.514864 140.517641,254.617958 C137.010081,251.045997 140.234938,258.228224 140.918595,259.599231 C141.782368,261.33334 142.733849,263.177576 143.618766,264.697016 C147.671372,271.741982 152.193846,279.431752 156.378798,286.693781 C138.279506,290.896182 125.532787,268.723053 120.675925,254.144729 C116.674221,242.13445 111.885489,214.053541 130.532959,213.025685" id="Fill-55" fill="#7189FB" mask="url(#mask-2)"></path>
            <path d="M291.71305,495.433975 C332.626506,428.926114 312.701075,402.815869 247.913929,432.855899 C216.684985,447.335609 206.039913,415.78799 215.33781,367.593853 C225.644892,314.16825 161.257913,299.318228 137,329.231362 C142.166295,370.635367 156.986014,409.888524 174.995907,442.907817 C193.3685,476.595109 217.325092,507.222532 245.697867,533.043072 C247.925886,535.071013 250.184198,537.047079 252.45606,539 C265.329151,529.812412 279.031273,516.047789 291.71305,495.433975" id="Fill-56" fill="#7189FB" mask="url(#mask-2)"></path>
            <path d="M335.308822,403.704322 C320.75711,372.789233 283.873093,361.584414 242.69324,417.221171 C223.465553,443.200089 200.752312,452.465813 182,454.964309 C183.245181,456.935416 184.378462,458.739263 185.335561,460.308626 C195.542234,477.040227 207.246458,492.877108 220.132373,507.60319 C245.47089,536.560777 275.264758,560.574991 308.181498,579 C322.284024,527.240634 346.009917,426.438077 335.308822,403.704322" id="Fill-57" fill="#2944C8" mask="url(#mask-2)"></path>
            <path d="M821.877566,445.786858 C823.718793,416.309882 804.448934,388.308261 787.251652,366.289668 C785.600292,364.176473 783.924201,362.081501 782.227369,360 C782.207425,360.011885 782.187481,360.021393 782.166739,360.032486 C727.167666,390.813669 780.316737,399.830603 734.679361,409.694559 C689.042783,419.559306 734.679361,461.088706 676.538715,482.085168 C622.955663,501.434336 683.928353,566.880798 702.716365,575 C758.967919,548.419061 817.85447,505.692421 821.877566,445.786858" id="Fill-58" fill="#7189FB" mask="url(#mask-2)"></path>
            <path d="M368.357313,291.274532 L432.54166,271 L501,336.906102 C501,336.906102 491.255009,417.646686 485.928933,420.691751 C480.602055,423.737608 395.298357,450 395.298357,450 L343,418.50368 L368.357313,291.274532 Z" id="Fill-59" fill="#8A6A50" mask="url(#mask-2)"></path>
            <path d="M406.113565,102 L586.886435,102 C592.472458,102 597,106.506527 597,112.066621 L597,471.934176 C597,477.493473 592.472458,482 586.886435,482 L406.113565,482 C400.529143,482 396,477.493473 396,471.934176 L396,112.066621 C396,106.506527 400.529143,102 406.113565,102" id="Fill-60" fill="#26336D" mask="url(#mask-2)"></path>
            <path d="M575.427286,395 L416.572714,395 C414.599961,395 413,393.403709 413,391.435483 L413,136.564517 C413,134.595493 414.599961,133 416.572714,133 L575.427286,133 C577.400839,133 579,134.595493 579,136.564517 L579,391.435483 C579,393.403709 577.400839,395 575.427286,395" id="Fill-61" fill="#FFFFFF" mask="url(#mask-2)"></path>
            <path d="M495.5,421 C505.717501,421 514,429.282499 514,439.5 C514,449.717501 505.717501,458 495.5,458 C485.282499,458 477,449.717501 477,439.5 C477,429.282499 485.282499,421 495.5,421" id="Fill-62" fill="#9D9FB5" mask="url(#mask-2)"></path>
            <path d="M479.5,122 C480.881329,122 482,123.119462 482,124.5 C482,125.881329 480.881329,127 479.5,127 C478.119462,127 477,125.881329 477,124.5 C477,123.119462 478.119462,122 479.5,122" id="Fill-63" fill="#FFFFFF" mask="url(#mask-2)"></path>
            <path d="M490.476116,122 L511.523884,122 C512.891233,122 514,123.119462 514,124.5 C514,125.881329 512.891233,127 511.523884,127 L490.476116,127 C489.108767,127 488,125.881329 488,124.5 C488,123.119462 489.108767,122 490.476116,122" id="Fill-64" fill="#FFFFFF" mask="url(#mask-2)"></path>
            <path d="M507,409.573601 C498.345986,374.599679 444.300229,404.582672 409.132842,404.582672 C385.752982,399.065502 383.875104,306.838004 395.959811,246.706423 C401.505805,219.108631 378.869289,212 378.869289,212 C378.869289,212 365.701835,273.127537 356.882103,281.832406 C303.400426,334.612536 289.225117,337.199954 292.389704,442.011854 L243,529.186325 C261.628199,546.612781 282.61948,562.325171 305.949942,575.739139 C317.265013,582.245101 329.020673,587.981206 341.120517,593 L361.793905,495.323002 C483.70061,421.477313 507,409.573601 507,409.573601" id="Fill-65" fill="#B28B67" mask="url(#mask-2)"></path>
            <polygon id="Fill-66" fill="#F1F2F7" mask="url(#mask-2)" points="250 308 267 308 267 268 250 268"></polygon>
            <polygon id="Stroke-67" stroke="#FFFFFF" mask="url(#mask-2)" points="250 308 267 308 267 268 250 268"></polygon>
            <path d="M249,272.5 L269,272.5" id="Stroke-68" stroke="#FFFFFF" mask="url(#mask-2)"></path>
            <path d="M249,280.5 L269,280.5" id="Stroke-69" stroke="#FFFFFF" mask="url(#mask-2)"></path>
            <path d="M249,285.5 L269,285.5" id="Stroke-70" stroke="#FFFFFF" mask="url(#mask-2)"></path>
            <path d="M249,290.5 L269,290.5" id="Stroke-71" stroke="#FFFFFF" mask="url(#mask-2)"></path>
            <path d="M249,297.5 L269,297.5" id="Stroke-72" stroke="#FFFFFF" mask="url(#mask-2)"></path>
            <path d="M249,302.5 L269,302.5" id="Stroke-73" stroke="#FFFFFF" mask="url(#mask-2)"></path>
            <polygon id="Fill-74" fill="#F1F2F7" mask="url(#mask-2)" points="305 313 313 313 313 278 305 278"></polygon>
            <path d="M222,325.499645 C222,327.433005 220.432846,329 218.5,329 C216.567154,329 215,327.433005 215,325.499645 C215,323.566995 216.567154,322 218.5,322 C220.432846,322 222,323.566995 222,325.499645" id="Fill-75" fill="#F1F2F7" mask="url(#mask-2)"></path>
            <path d="M222,325.499645 C222,327.433005 220.432846,329 218.5,329 C216.567154,329 215,327.433005 215,325.499645 C215,323.566995 216.567154,322 218.5,322 C220.432846,322 222,323.566995 222,325.499645 Z" id="Stroke-76" stroke="#FFFFFF" mask="url(#mask-2)"></path>
            <path d="M232,325.499645 C232,327.433005 230.432846,329 228.5,329 C226.567154,329 225,327.433005 225,325.499645 C225,323.566995 226.567154,322 228.5,322 C230.432846,322 232,323.566995 232,325.499645" id="Fill-77" fill="#F1F2F7" mask="url(#mask-2)"></path>
            <path d="M232,325.499645 C232,327.433005 230.432846,329 228.5,329 C226.567154,329 225,327.433005 225,325.499645 C225,323.566995 226.567154,322 228.5,322 C230.432846,322 232,323.566995 232,325.499645 Z" id="Stroke-78" stroke="#FFFFFF" mask="url(#mask-2)"></path>
            <path d="M573,251.000396 C573,292.973663 538.749627,327 496.5,327 C454.250373,327 420,292.973663 420,251.000396 C420,209.027129 454.250373,175 496.5,175 C538.749627,175 573,209.027129 573,251.000396" id="Fill-79" fill="#CFD1DB" mask="url(#mask-2)"></path>
        </g>
        <g id="Group-102" transform="translate(437.000000, 33.000000)">
            <g id="Group-83">
                <mask id="mask-4" fill="white">
                    <use xlink:href="#path-3"></use>
                </mask>
                <g id="Clip-82"></g>
                <path d="M92.1422971,89.1129467 C87.2162101,79.320324 84.9867174,68.2669886 88.5362101,57.3872701 C98.7590362,26.0414796 141.862297,44.2346054 146.568384,62.5137431 C151.274471,80.7920844 140.043312,121.384959 128.048529,121.455043 C123.265123,121.482917 114.38621,116.283971 106.088384,108.035581 L101.509036,152.436875 L65.372442,143.434288 L92.1422971,89.1129467 Z" id="Fill-81" fill="#B28B67" mask="url(#mask-4)"></path>
            </g>
            <g id="Group-86">
                <mask id="mask-6" fill="white">
                    <use xlink:href="#path-5"></use>
                </mask>
                <g id="Clip-85"></g>
                <path d="M148.175261,70.5944886 C148.33787,68.4179078 148.042145,65.8813509 147.828522,63.7302551 C147.554319,60.9579617 146.750043,58.3186683 145.774391,55.7781293 C143.93787,50.9941114 141.43258,46.4633509 138.414754,42.4693689 C132.903594,35.1726862 124.918232,29.7674707 116.016203,28.6596683 C111.522145,28.099794 106.875043,28.6931174 102.585841,30.5383928 C98.7095362,32.2052731 94.6666377,35.0731353 90.3838116,34.2846922 C85.7239565,33.4269617 82.5180145,28.3681832 79.4563478,24.9738958 C76.0033043,21.1471593 72.0975072,18.0125006 67.4448261,16.0135186 C59.649971,12.6646263 51.3401884,13.4817401 44.0937391,18.6878539 C36.3817826,24.2284587 29.4804783,33.4500575 31.0706957,43.7324707 C31.3656232,45.6438479 31.937942,47.3354168 32.9781594,48.8788539 C33.9338841,50.2940695 35.5201159,51.9426323 35.5775072,53.8380814 C35.638087,55.8529916 33.4476522,57.8870156 32.4098261,59.4328419 C30.9216377,61.6484467 29.5609855,64.0233329 29.1584493,66.7327102 C28.496058,71.1822371 30.2185942,76.0172251 32.417,79.5978719 C34.6544638,83.2422311 37.885913,85.8170156 41.5884493,87.554776 C44.061058,88.7159377 46.6484493,89.6612731 49.3394638,90.1271713 C50.6754058,90.3581293 51.9228696,90.2856563 53.2659855,90.3151234 C54.5716377,90.343794 55.1814203,90.8407521 56.0630145,91.7741413 C60.1569275,96.1073928 65.0941739,98.6192611 70.8372899,99.5574287 C75.6828696,100.348261 81.4395362,100.572051 86.1177246,98.3150335 C91.3124348,95.8087401 92.4578696,90.8526982 92.7607681,85.328818 C93.7021449,86.1228359 96.5876522,87.1868359 95.3385942,84.6478898 C94.8435942,83.6420275 93.600913,82.9730455 92.8221449,82.2602611 C91.9142464,81.4296084 91.0326522,80.429321 90.4491739,79.2976263 C88.0945362,74.7302311 93.3211304,67.9305066 97.7697536,67.7043269 C104.379319,67.3674467 103.607725,76.314285 107.438594,79.6329138 C109.640188,81.5411054 112.715406,80.4484347 115.050116,79.1335665 C118.177942,77.3711174 120.693594,74.6306802 122.987652,71.7763569 C124.87758,69.4261593 126.691783,67.0162311 128.600841,64.6851473 C129.493594,63.5956623 132.384681,60.6099317 131.718304,58.9621653 C136.335116,59.1891413 140.785333,62.2210635 143.982507,65.5396922 C145.303304,66.9119018 146.227942,68.2920754 146.631275,70.2329198 C146.717362,70.6486443 146.831348,71.8504228 147.309609,72.0176683 C148.199174,72.3282671 148.133812,71.1416204 148.175261,70.5944886" id="Fill-84" fill="#3456FA" mask="url(#mask-6)"></path>
            </g>
            <g id="Group-89">
                <mask id="mask-8" fill="white">
                    <use xlink:href="#path-7"></use>
                </mask>
                <g id="Clip-88"></g>
                <path d="M0.653942029,260.323369 L33.0752464,261.015447 C11.9321304,324.919159 0.529594203,358.823806 -1.13475362,362.726998 C-4.87953623,371.509776 2.48249275,385.114004 5.60473913,392.410686 C-5.05888406,396.934279 -3.62649275,379.52004 -17.0831594,385.461237 C-29.3656957,390.883974 -38.8121449,400.933836 -52.7375072,392.052303 C-54.4496812,390.961225 -56.2766377,386.930608 -51.6391014,383.88674 C-40.0875072,376.303351 -23.3993913,362.969902 -21.0981594,358.52595 C-17.959971,352.464495 -10.7095362,319.730566 0.653942029,260.323369 L0.653942029,260.323369 Z M190.698072,262.390842 L239.558797,299.385549 C252.919014,303.220249 264.054522,307.896752 272.96771,313.413465 C275.060899,315.377405 277.563797,319.325992 268.753435,318.496932 C259.942275,317.668668 250.636913,317.190824 249.36713,320.162219 C248.098145,323.132818 253.374159,326.804255 250.842565,330.797441 C249.155101,333.460626 241.522855,326.576483 227.944232,310.148195 L179.287565,289.088004 L190.698072,262.390842 Z" id="Fill-87" fill="#B28B67" mask="url(#mask-8)"></path>
            </g>
            <g id="Group-92">
                <mask id="mask-10" fill="white">
                    <use xlink:href="#path-9"></use>
                </mask>
                <g id="Clip-91"></g>
                <path d="M95.1586884,126.66697 L108.615355,124.613036 C157.647457,168.23385 176.657529,250.723317 236.914413,295.295838 L221.912167,313.139341 C116.287457,298.262455 91.8005,197.622868 95.1586884,126.66697" id="Fill-90" fill="#26336D" mask="url(#mask-10)"></path>
            </g>
            <g id="Group-95">
                <mask id="mask-12" fill="white">
                    <use xlink:href="#path-11"></use>
                </mask>
                <g id="Clip-94"></g>
                <path d="M33.7452899,293.273123 C87.5392754,294.211291 127.109783,294.901776 152.456014,295.343782 C157.879493,295.438554 156.993913,287.632968 156.278913,283.689956 C148.020942,238.180063 113.547101,188.676986 114.675,124.120219 L80.5263768,118.1838 C51.4130435,162.977722 40.645,218.563758 33.7452899,293.273123" id="Fill-93" fill="#DDE3E9" mask="url(#mask-12)"></path>
            </g>
            <g id="Group-98">
                <mask id="mask-14" fill="white">
                    <use xlink:href="#path-13"></use>
                </mask>
                <g id="Clip-97"></g>
                <path d="M36.9936377,161.953861 C32.0452319,160.445466 28.164942,157.062328 25.3527681,151.803651 C13.2296522,129.133125 17.9652319,116.850137 31.4107391,113.020214 C44.8570435,109.190292 56.639,117.768394 77.9487101,118.13952 C79.1076957,118.160226 80.1678406,118.25022 81.1291449,118.411891 L91.8382029,119.206705 C120.783348,223.372783 128.056899,292.660208 113.661246,327.070574 L20.2266087,325.441125 C14.4659565,338.178065 8.98030435,348.884166 3.76805797,357.557041 L-21.6905652,357.113442 C-22.7411449,280.047508 -3.17947826,214.99458 36.9936377,161.953861" id="Fill-96" fill="#3F4A7E" mask="url(#mask-14)"></path>
            </g>
            <g id="Group-101">
                <mask id="mask-16" fill="white">
                    <use xlink:href="#path-15"></use>
                </mask>
                <g id="Clip-100"></g>
                <path d="M41.5022826,272.574341 C44.0131522,297.069437 48.4801087,314.89303 54.9007609,326.045916 L20.2268478,325.441443 C26.9456159,310.583671 34.0374275,292.961569 41.5022826,272.574341" id="Fill-99" fill="#000000" mask="url(#mask-16)"></path>
            </g>
        </g>
        <g id="Group-117" transform="translate(203.000000, 62.000000)">
            <path d="M565.916765,80.2695742 L452.813743,80.2695742 L434,98 L434,14.9919591 C434,7.26426527 440.305486,1 448.084031,1 L565.916765,1 C573.69531,1 580,7.26426527 580,14.9919591 L580,66.2784062 C580,74.005309 573.69531,80.2695742 565.916765,80.2695742" id="Fill-103" fill="#FA476B"></path>
            <path d="M343,265.999607 C343,275.388564 335.388564,283 326.000393,283 C316.611436,283 309,275.388564 309,265.999607 C309,256.611436 316.611436,249 326.000393,249 C335.388564,249 343,256.611436 343,265.999607" id="Fill-105" fill="#E12E52"></path>
            <path d="M587.4285,462.352199 C587.027776,463.762554 586.498248,465.019922 585.793007,466 C586.409199,464.844624 586.950653,463.623909 587.4285,462.352199 M504.167021,296.374049 C502.026648,297.405123 501.419996,299.885596 502.579233,301.891966 C503.959503,304.280009 507.256728,304.88957 509.746939,305.202716 C510.873577,305.344549 516.888408,306.099926 515.687827,304.837777 C515.787213,304.901522 515.99155,305.047338 516.204634,305.232198 C516.236437,305.734189 516.274601,306.23618 516.318331,306.737375 C516.280167,306.75092 516.245978,306.76606 516.203838,306.778809 C516.248363,306.769247 516.280962,306.756498 516.319126,306.74614 C516.76676,311.753301 517.862389,316.660861 519.644974,321.409058 C518.734599,320.81145 517.767774,320.301491 516.752448,319.952487 C513.747021,318.919023 506.755028,319.972408 509.354962,324.809848 C511.847558,329.446492 517.879086,326.282355 521.758314,326.479964 C524.347116,332.336526 527.353339,338.05763 530.586957,343.656025 C530.311857,343.683116 530.050273,343.805029 529.866608,344.040885 C528.354353,342.830529 526.848459,341.235313 525.353696,340.577147 C523.197421,339.628145 518.631238,338.374761 516.505971,340.044877 C513.893316,342.096666 515.722016,344.585904 518.102505,345.57873 C521.551592,347.018568 526.620269,346.237693 530.323783,345.768371 C530.703835,345.920562 531.159419,345.895064 531.483815,345.63132 C531.564913,345.621758 531.646807,345.612993 531.725521,345.604228 C535.01718,351.190671 538.503635,356.656795 541.984525,362.016147 C541.937614,362.003398 541.891499,361.991446 541.842999,361.978697 C540.851526,360.985073 539.747946,360.110175 538.480578,359.508582 C535.549888,358.111772 531.917932,357.352411 528.947488,359.069539 C525.990561,360.779496 524.298616,364.49423 526.361866,367.534861 C530.493137,373.621701 540.47386,363.780287 543.180335,363.845625 C546.726422,369.244818 550.590543,374.404967 554.546894,379.495793 C554.034859,379.215315 553.501355,378.976272 552.934459,378.80177 C548.318185,377.369901 536.063514,380.856746 540.664681,387.75235 C544.674303,393.761899 552.482849,385.425661 557.233492,382.930049 C560.9704,387.685418 564.736726,392.418476 568.344829,397.274243 C566.065315,396.130819 563.753998,395.55074 561.005384,395.796158 C558.160563,396.050341 553.423437,397.177032 554.36482,401.149135 C555.322899,405.189765 560.855112,404.592953 563.797728,403.985783 C565.403008,403.655106 568.802004,402.117261 571.582422,401.749931 C577.257751,409.896528 581.846991,418.523602 584.68068,428.151471 C586.449748,434.162614 587.445197,440.398458 587.757666,446.660597 C587.957233,450.657402 588.57899,457.429499 587.168507,462.283673 C591.066817,452.790465 590.175524,440.229534 588.396915,430.649474 C586.761422,421.83993 583.273377,413.678991 578.787498,406.053508 C581.157651,401.958696 594.754429,398.169859 588.25857,392.555527 C584.807099,389.584219 580.070768,392.338795 578.432094,395.958708 C577.306251,398.445555 577.518539,401.91009 577.94073,404.639168 C576.515935,402.302918 575.00686,400.014476 573.427023,397.777031 C571.24292,394.68381 568.978513,391.651147 566.680713,388.643982 C572.193844,385.260721 579.130975,373.753175 573.366597,370.435253 C564.852808,365.545224 565.74251,383.395387 565.721838,386.70295 C565.900732,386.750758 566.053389,386.72526 566.181398,386.629643 C566.070086,386.909324 565.945257,387.208128 565.809297,387.506135 C561.406902,381.774673 556.906712,376.117314 552.627555,370.295812 C553.174575,370.043222 554.205802,368.859161 554.945233,368.268724 C556.61412,366.938049 558.240867,365.522913 559.564687,363.835267 C561.65656,361.16834 564.061697,356.719743 560.51243,354.156402 C556.654669,351.365173 553.521233,356.310979 552.827917,359.505395 C552.35007,361.714952 552.516243,363.942836 552.379488,366.178688 C552.337348,366.875898 551.328383,369.847207 552.520218,368.72689 C552.376308,369.20179 552.297594,369.550793 552.267381,369.804179 C551.500122,368.753982 550.741609,367.69741 549.991048,366.635261 C550.05704,366.534066 550.113491,366.420919 550.14927,366.284664 C550.397337,365.340443 549.514791,364.77391 548.784901,364.913352 C547.798994,363.487857 546.828988,362.05041 545.884425,360.593839 C543.882397,357.50779 541.859696,354.341262 539.865619,351.122145 C540.51759,350.76119 540.434901,350.055215 541.056658,349.65681 C541.677621,349.259998 542.753373,349.192269 543.45782,348.850437 C545.230864,347.989084 546.854431,346.53331 548.121004,345.032915 C550.212877,342.552441 553.382887,337.095879 549.238896,334.844887 C544.96769,332.521386 541.486005,337.683925 540.461934,341.151648 C540.263162,341.823359 539.498288,348.089482 539.425141,350.407406 C535.740709,344.428932 532.17236,338.27994 529.0588,332.130949 C530.336504,332.384335 534.494808,330.518203 535.373379,329.955654 C537.517728,328.584342 541.150479,325.322994 538.446389,322.63535 C536.039661,320.249698 532.071384,322.154873 530.355587,324.451283 C530.073331,324.828971 528.576183,328.585139 528.160352,330.323781 C526.883443,327.724583 525.689223,325.129369 524.611085,322.551685 C523.892327,320.836151 523.248307,319.096712 522.673459,317.336556 C522.915165,317.257672 523.164027,317.085561 523.412094,316.85847 C528.211238,317.034565 535.624626,311.014657 530.700654,307.358887 C528.356739,305.621042 525.031686,307.511875 523.341332,309.274421 C522.996264,309.63458 522.143136,311.632185 521.458566,313.205091 C519.947107,307.455301 519.109085,301.527027 518.772764,295.558114 C519.198135,295.540585 519.603629,295.303932 519.758671,294.781224 C522.276711,293.963695 524.275559,293.262502 526.358686,291.116689 C527.653087,289.783624 530.138528,286.639407 527.447159,285.190008 C523.943212,283.304753 520.415413,288.531037 519.527301,291.281629 C519.42394,291.600354 519.228348,292.550152 519.060585,293.424254 C518.934961,293.378836 518.802182,293.354135 518.670197,293.350151 C518.537418,289.66968 518.588303,285.979648 518.779919,282.31352 C520.953686,282.080054 523.527382,271.430673 522.486614,269.621115 C520.162575,265.571721 517.000515,270.065736 516.622054,272.708758 C516.17601,275.82668 516.986999,278.915917 518.129538,281.745393 C518.252777,282.044994 518.205072,282.021887 518.32672,281.664916 C518.314794,281.851369 518.347392,281.997186 518.41736,282.11352 C517.995964,283.715907 517.485518,285.339808 517.269255,286.789208 C516.648292,290.942984 516.269831,295.171661 516.12274,299.367668 C516.086961,300.387587 516.078215,301.405911 516.093321,302.420252 C514.745649,300.68161 512.795302,298.979621 512.011346,298.411495 C509.97831,296.937395 506.747872,295.13182 504.167021,296.374049 M511.370506,276.915921 C508.537612,274.689631 503.952348,275.634649 504.849205,280.147787 C505.80967,284.980447 512.752367,286.482436 516.697587,287.211518 C516.309585,287.108729 515.887394,282.772483 515.581286,282.066508 C514.679657,279.985238 513.111746,278.286436 511.370506,276.915921" id="Fill-107" fill="#F2F2F2"></path>
            <path d="M40.2968862,29.7770981 C25.1754505,45.7606532 17.869729,67.9310834 12.0853809,88.7724636 C5.62443234,112.051098 1.3567646,135.688805 1.19250319,159.89134 C1.08534218,175.792276 0.659826924,191.793308 1.57343322,207.675179 C1.89726284,213.316293 2.45105844,218.966941 3.33181245,224.546886 C3.40377459,225.005261 5.37412925,237.464808 7.25844223,234.562029 C8.33005235,232.910448 5.23959134,221.636957 5.00571438,219.758969 C3.69240534,209.182971 3.38656625,198.529122 3.45070642,187.876861 C3.55630303,170.337848 3.04709268,152.888604 4.79764994,135.413939 C5.0581216,132.805092 5.26462165,130.065168 5.87473544,127.512724 C6.52239469,124.799016 5.69795888,125.983483 7.80754464,124.908644 C9.85846561,123.864788 12.3927844,124.014137 14.5195785,122.704153 C22.9587038,117.50632 27.2764321,104.156238 30.635969,95.3970593 C34.4796858,85.3811218 36.8153266,74.6986732 38.6808668,64.1576298 C40.0504941,56.4129141 41.0298049,48.7150688 41.5843827,40.8702573 C41.7588127,38.3980494 41.7689812,35.8122406 42.2476859,33.3813421 C42.3759662,32.7251583 43.0228433,31.5653179 42.9993774,30.9853976 C42.950099,29.7556489 42.2195268,29.0327347 42.1592976,28 C41.5265001,28.5791258 40.9054356,29.1717567 40.2968862,29.7770981" id="Fill-109" fill="#7189FB"></path>
            <path d="M460,22.5 L558,22.5" id="Stroke-111" stroke="#FFFFFF" stroke-width="3"></path>
            <path d="M460,38.5 L558,38.5" id="Stroke-113" stroke="#FFFFFF" stroke-width="3"></path>
            <path d="M460,55.5 L558,55.5" id="Stroke-115" stroke="#FFFFFF" stroke-width="3"></path>
        </g>
    </g>
</svg>